<?xml version="1.0" encoding="utf-8"?>
<!-- Generator: Adobe Illustrator 14.0.0, SVG Export Plug-In . SVG Version: 6.00 Build 43363)  -->
<!DOCTYPE svg PUBLIC "-//W3C//DTD SVG 1.1//EN" "http://www.w3.org/Graphics/SVG/1.1/DTD/svg11.dtd">
<svg version="1.1" id="Camada_1" xmlns="http://www.w3.org/2000/svg" xmlns:xlink="http://www.w3.org/1999/xlink" x="0px" y="0px"
	 width="500px" height="510px" viewBox="0 0 500 510" enable-background="new 0 0 500 510" xml:space="preserve">
<g>
	<g>
		<rect y="-0.114" fill="#32286A" width="499.303" height="371.563"/>
	</g>
	<g opacity="0.85">
		<path fill="#FFFFFF" d="M332.028,315.551l-132.34-56.979l2.103,2.82l-16.827-143.102l-1.392,3.231l115.521-86.116l-3.494,0.41
			l132.336,56.987l-2.103-2.82l16.826,143.095l1.392-3.231l-115.517,86.115L332.028,315.551z M449.647,232.257L432.821,89.162
			l-0.237-2.018l-1.865-0.803L298.383,29.354l-1.865-0.803l-1.629,1.214l-115.521,86.117l-1.628,1.214l0.237,2.017l16.826,143.103
			l0.238,2.016l1.865,0.805l132.341,56.98l1.865,0.801l1.629-1.213l115.517-86.115l1.628-1.214L449.647,232.257z"/>
	</g>
	<g>
		<path fill="#FFFFFF" d="M431.725,314.387l-150.18,38.639l4.553,1.27L177.54,243.555l1.178,4.577L220.35,98.751l-3.375,3.308
			L367.146,63.43l-4.552-1.269l108.561,110.735l-1.178-4.577l-41.626,149.377L431.725,314.387z M477.903,166.279L369.344,55.544
			l-1.91-1.948l-2.642,0.679L214.62,92.905l-2.642,0.68l-0.733,2.628l-41.631,149.381l-0.733,2.628l1.91,1.948L279.348,360.91
			l1.91,1.949l2.643-0.68l150.18-38.639l2.643-0.68l0.731-2.629l41.626-149.376l0.732-2.629L477.903,166.279z"/>
	</g>
	<g opacity="0.7">
		<path fill="#FFFFFF" d="M408.262,327.205L244.56,341.721l4.541,2.111L154.68,209.314l0.442,4.989l69.284-149.026l-4.099,2.877
			L383.995,53.65l-4.542-2.111l94.431,134.508l-0.442-4.989l-69.279,149.024L408.262,327.205z M482.081,180.292l-94.43-134.508
			l-1.66-2.366l-2.881,0.255L219.423,58.176l-2.88,0.255l-1.219,2.622L146.039,210.08l-1.219,2.622l1.662,2.367l94.421,134.517
			l1.661,2.367l2.88-0.254l163.702-14.518l2.88-0.256l1.219-2.621l69.278-149.024l1.22-2.622L482.081,180.292z"/>
	</g>
	<path fill="#FFFFFF" d="M53.409,238.254c-5.393-7.511-7.896-15.215-7.896-23.882c0-21.571,18.297-37.364,43.142-37.364
		c29.275,0,46.802,17.334,46.802,46.224c0,11.363-2.503,23.69-6.548,32.164H2.37v-17.142H53.409z M116.582,238.254
		c1.541-5.007,2.696-12.326,2.696-17.334c0-15.408-11.749-26.386-28.12-26.386c-18.297,0-30.238,9.63-30.238,24.075
		c0,7.126,2.311,12.326,8.86,19.645H116.582z"/>
	<path fill="#FFFFFF" d="M47.246,160.251v-18.682l53.157-23.305L47.246,95.538V77.24l88.21,38.135v5.778L47.246,160.251z"/>
	<path fill="#FFFFFF" d="M69.587,4.44c-6.356,9.63-9.052,18.682-9.052,25.038c0,6.934,3.274,11.364,7.896,11.364
		c3.852,0,8.475-5.778,17.334-20.994c9.437-14.252,15.408-19.453,24.267-19.453c15.216,0,25.423,12.134,25.423,28.505
		c0,10.593-2.119,18.875-7.896,30.045h-18.49c7.704-11.17,11.364-21.378,11.364-28.312c-0.386-6.934-3.66-12.711-9.823-12.711
		c-11.941,0-18.297,40.446-41.602,40.446c-14.638,0-23.497-11.171-23.497-28.505c0-8.089,2.311-16.371,7.126-25.423H69.587z"/>
	<g>
		<path fill="#32286A" d="M3.43,382.732h6.89v24.074h0.159c2.458-4.275,6.89-6.969,13.066-6.969c9.583,0,16.237,7.918,16.237,19.48
			c0,13.703-8.711,20.516-17.263,20.516c-5.545,0-9.98-2.139-12.912-7.131H9.451l-0.398,6.26h-5.94
			c0.159-2.613,0.318-6.494,0.318-9.902V382.732z M10.32,423.598c0,0.873,0.077,1.742,0.318,2.535
			c1.267,4.832,5.384,8.154,10.455,8.154c7.361,0,11.64-5.939,11.64-14.727c0-7.686-3.96-14.26-11.486-14.26
			c-4.671,0-9.105,3.328-10.532,8.555c-0.236,0.873-0.395,1.822-0.395,2.93V423.598z"/>
		<path fill="#32286A" d="M63.06,389.859c0,2.377-1.665,4.277-4.435,4.277c-2.534,0-4.196-1.9-4.196-4.277s1.742-4.357,4.355-4.357
			C61.318,385.502,63.06,387.4,63.06,389.859z M55.298,438.959v-38.334h6.97v38.334H55.298z"/>
		<path fill="#32286A" d="M80.638,382.732h6.889v24.074h0.16c2.454-4.275,6.892-6.969,13.066-6.969
			c9.583,0,16.236,7.918,16.236,19.48c0,13.703-8.71,20.516-17.265,20.516c-5.543,0-9.98-2.139-12.91-7.131h-0.159l-0.395,6.26
			h-5.94c0.159-2.613,0.318-6.494,0.318-9.902V382.732L80.638,382.732z M87.527,423.598c0,0.873,0.08,1.742,0.318,2.535
			c1.267,4.832,5.387,8.154,10.455,8.154c7.364,0,11.64-5.939,11.64-14.727c0-7.686-3.958-14.26-11.484-14.26
			c-4.671,0-9.105,3.328-10.532,8.555c-0.238,0.873-0.397,1.822-0.397,2.93V423.598L87.527,423.598z"/>
		<path fill="#32286A" d="M132.508,382.732h6.967v56.227h-6.967V382.732z"/>
		<path fill="#32286A" d="M165.766,389.859c0,2.377-1.662,4.277-4.432,4.277c-2.534,0-4.197-1.9-4.197-4.277
			s1.744-4.357,4.355-4.357C164.027,385.502,165.766,387.4,165.766,389.859z M158.004,438.959v-38.334h6.969v38.334H158.004z"/>
		<path fill="#32286A" d="M218.034,419.479c0,14.172-9.898,20.352-19.086,20.352c-10.296,0-18.371-7.604-18.371-19.721
			c0-12.748,8.472-20.273,19.004-20.273C210.59,399.838,218.034,407.838,218.034,419.479z M187.702,419.873
			c0,8.395,4.75,14.73,11.563,14.73c6.651,0,11.64-6.256,11.64-14.889c0-6.496-3.245-14.648-11.481-14.648
			C191.265,405.066,187.702,412.67,187.702,419.873z"/>
		<path fill="#32286A" d="M242.025,391.443v9.182h9.978v5.311h-9.978v20.672c0,4.75,1.349,7.443,5.227,7.443
			c1.901,0,3.012-0.162,4.038-0.48l0.317,5.311c-1.35,0.477-3.483,0.949-6.179,0.949c-3.245,0-5.861-1.109-7.523-2.93
			c-1.903-2.135-2.693-5.543-2.693-10.059v-20.906h-5.941v-5.311h5.941V393.5L242.025,391.443z"/>
		<path fill="#32286A" d="M266.653,382.732h6.972v23.996h0.16c1.107-1.98,2.847-3.801,4.985-4.99c2.058-1.186,4.516-1.9,7.126-1.9
			c5.151,0,13.385,3.168,13.385,16.316v22.809h-6.966v-22.02c0-6.178-2.3-11.324-8.871-11.324c-4.514,0-7.997,3.168-9.347,6.891
			c-0.396,1.027-0.473,2.057-0.473,3.326v23.127h-6.972V382.732z"/>
		<path fill="#32286A" d="M321.295,421.061c0.161,9.428,6.099,13.305,13.147,13.305c4.986,0,8.074-0.869,10.609-1.98l1.268,4.986
			c-2.452,1.113-6.731,2.459-12.83,2.459c-11.8,0-18.849-7.84-18.849-19.402c0-11.561,6.813-20.592,17.981-20.592
			c12.588,0,15.836,10.928,15.836,17.975c0,1.428-0.077,2.461-0.235,3.248h-26.928V421.061z M341.728,416.072
			c0.076-4.355-1.821-11.246-9.66-11.246c-7.131,0-10.137,6.414-10.691,11.246H341.728z M329.928,384.078l6.968,11.326h-4.91
			l-9.66-11.326H329.928z"/>
		<path fill="#32286A" d="M390.032,433.098h-0.159c-2.139,3.723-6.336,6.732-12.513,6.732c-8.946,0-16.239-7.682-16.239-19.324
			c0-14.412,9.271-20.668,17.348-20.668c5.94,0,9.901,2.93,11.799,6.574h0.159l0.241-5.781h6.571
			c-0.158,3.17-0.317,6.57-0.317,10.533v43.479h-6.89V433.098z M390.032,416.154c0-0.949-0.077-1.982-0.318-2.855
			c-1.108-4.275-4.75-7.918-9.979-7.918c-7.207,0-11.563,6.096-11.563,14.652c0,7.682,3.645,14.254,11.33,14.254
			c4.517,0,8.393-2.771,9.98-7.523c0.317-1.029,0.554-2.377,0.554-3.404v-7.205H390.032z"/>
		<path fill="#32286A" d="M447.365,428.43c0,4.039,0.082,7.521,0.318,10.533h-6.177l-0.395-6.26h-0.16
			c-1.743,3.092-5.858,7.131-12.67,7.131c-6.019,0-13.226-3.406-13.226-16.793v-22.41h6.967v21.146
			c0,7.283,2.298,12.275,8.557,12.275c4.668,0,7.916-3.246,9.183-6.414c0.399-0.953,0.637-2.219,0.637-3.564v-23.443h6.963v27.799
			H447.365z"/>
		<path fill="#32286A" d="M469.619,421.061c0.154,9.428,6.096,13.305,13.145,13.305c4.991,0,8.079-0.869,10.613-1.98l1.265,4.986
			c-2.457,1.113-6.73,2.459-12.83,2.459c-11.8,0-18.849-7.84-18.849-19.402c0-11.561,6.808-20.592,17.977-20.592
			c12.594,0,15.842,10.928,15.842,17.975c0,1.428-0.083,2.461-0.244,3.248h-26.918V421.061z M490.048,416.072
			c0.082-4.355-1.821-11.246-9.66-11.246c-7.126,0-10.137,6.414-10.691,11.246H490.048z"/>
		<path fill="#32286A" d="M11.023,473.508l7.028,20.043c1.18,3.326,2.142,6.285,2.883,9.242h0.221
			c0.815-2.957,1.85-5.916,3.032-9.242l6.949-20.043h6.803l-14.046,35.793h-6.213L4.074,473.508H11.023L11.023,473.508z"/>
		<path fill="#32286A" d="M49.693,463.453c0,2.217-1.554,3.99-4.143,3.99c-2.368,0-3.919-1.773-3.919-3.99
			c0-2.221,1.626-4.068,4.065-4.068C48.067,459.385,49.693,461.16,49.693,463.453z M42.45,509.301v-35.793h6.507v35.793H42.45z"/>
		<path fill="#32286A" d="M58.122,484.676c0-4.213-0.075-7.838-0.297-11.168h5.694l0.292,7.1h0.22
			c1.631-4.807,5.623-7.838,9.986-7.838c0.665,0,1.183,0.076,1.775,0.152v6.135c-0.665-0.146-1.332-0.146-2.219-0.146
			c-4.586,0-7.839,3.4-8.726,8.281c-0.149,0.885-0.221,1.994-0.221,3.027v19.082h-6.51v-24.625H58.122z"/>
		<path fill="#32286A" d="M90.282,464.932v8.576h9.316v4.957h-9.316v19.301c0,4.436,1.259,6.949,4.881,6.949
			c1.777,0,2.812-0.148,3.773-0.441l0.297,4.953c-1.259,0.443-3.257,0.887-5.771,0.887c-3.029,0-5.468-1.033-7.023-2.736
			c-1.775-1.996-2.514-5.176-2.514-9.391v-19.521H78.38v-4.957h5.546v-6.652L90.282,464.932z"/>
		<path fill="#32286A" d="M135.242,499.461c0,3.773,0.072,7.027,0.292,9.834h-5.766l-0.372-5.84h-0.146
			c-1.632,2.885-5.474,6.652-11.83,6.652c-5.623,0-12.353-3.178-12.353-15.674v-20.93h6.51v19.744
			c0,6.803,2.145,11.461,7.988,11.461c4.363,0,7.393-3.029,8.578-5.986c0.372-0.887,0.592-2.072,0.592-3.33v-21.889h6.507V499.461
			L135.242,499.461z"/>
		<path fill="#32286A" d="M148.026,492.586c0.149,8.799,5.694,12.42,12.276,12.42c4.656,0,7.542-0.813,9.907-1.846l1.18,4.656
			c-2.293,1.037-6.284,2.291-11.979,2.291c-11.02,0-17.596-7.318-17.596-18.115c0-10.793,6.356-19.223,16.786-19.223
			c11.755,0,14.788,10.203,14.788,16.785c0,1.332-0.075,2.293-0.221,3.031H148.026z M167.105,487.928
			c0.074-4.066-1.698-10.5-9.021-10.5c-6.656,0-9.467,5.99-9.98,10.5H167.105z"/>
		<path fill="#32286A" d="M179.817,456.795h6.51v52.5h-6.51V456.795z"/>
		<path fill="#32286A" d="M195.641,456.795h6.507v52.5h-6.507V456.795z"/>
		<path fill="#32286A" d="M215.087,492.586c0.146,8.799,5.694,12.42,12.273,12.42c4.655,0,7.543-0.813,9.908-1.846l1.18,4.656
			c-2.293,1.037-6.284,2.291-11.979,2.291c-11.02,0-17.599-7.318-17.599-18.115c0-10.793,6.359-19.223,16.789-19.223
			c11.755,0,14.785,10.203,14.785,16.785c0,1.332-0.072,2.293-0.22,3.031H215.087z M234.163,487.928
			c0.074-4.066-1.7-10.5-9.021-10.5c-6.656,0-9.468,5.99-9.983,10.5H234.163z"/>
		<path fill="#32286A" d="M289.139,456.795v43.26c0,3.18,0.146,6.805,0.293,9.246h-5.766l-0.296-6.213h-0.221
			c-1.924,3.994-6.212,7.025-12.053,7.025c-8.654,0-15.383-7.32-15.383-18.193c-0.068-11.902,7.395-19.15,16.044-19.15
			c5.546,0,9.174,2.59,10.799,5.398h0.148v-21.369h6.434V456.795z M282.701,488.072c0-0.813-0.071-1.918-0.296-2.734
			c-0.959-4.068-4.509-7.469-9.39-7.469c-6.73,0-10.722,5.914-10.722,13.754c0,7.246,3.626,13.234,10.574,13.234
			c4.358,0,8.355-2.957,9.537-7.764c0.225-0.887,0.296-1.775,0.296-2.809V488.072z"/>
		<path fill="#32286A" d="M301.998,492.586c0.151,8.799,5.693,12.42,12.275,12.42c4.658,0,7.542-0.813,9.904-1.846l1.185,4.656
			c-2.293,1.037-6.287,2.291-11.979,2.291c-11.02,0-17.602-7.318-17.602-18.115c0-10.793,6.361-19.223,16.786-19.223
			c11.761,0,14.793,10.203,14.793,16.785c0,1.332-0.075,2.293-0.224,3.031H301.998z M321.079,487.928
			c0.071-4.066-1.701-10.5-9.024-10.5c-6.656,0-9.465,5.99-9.982,10.5H321.079z"/>
		<path fill="#32286A" d="M346.949,502.719c1.996,1.184,5.397,2.512,8.649,2.512c4.658,0,6.874-2.291,6.874-5.322
			c0-3.107-1.847-4.73-6.576-6.508c-6.51-2.367-9.542-5.842-9.542-10.129c0-5.766,4.734-10.502,12.348-10.502
			c3.628,0,6.803,0.965,8.727,2.221l-1.554,4.732c-1.404-0.887-3.994-2.141-7.318-2.141c-3.85,0-5.918,2.219-5.918,4.875
			c0,2.961,2.068,4.291,6.73,6.139c6.136,2.293,9.392,5.402,9.392,10.723c0,6.359-4.956,10.795-13.311,10.795
			c-3.919,0-7.541-1.033-10.055-2.514L346.949,502.719z"/>
		<path fill="#32286A" d="M400.631,500.721c0,3.105,0.148,6.139,0.519,8.58h-5.844l-0.516-4.514h-0.224
			c-1.995,2.811-5.843,5.324-10.941,5.324c-7.249,0-10.945-5.102-10.945-10.277c0-8.652,7.69-13.389,21.519-13.311v-0.738
			c0-2.887-0.816-8.279-8.137-8.209c-3.401,0-6.875,0.965-9.388,2.664l-1.48-4.361c2.957-1.85,7.318-3.109,11.832-3.109
			c10.943,0,13.605,7.471,13.605,14.57V500.721z M394.347,491.033c-7.1-0.148-15.16,1.107-15.16,8.059
			c0,4.289,2.809,6.209,6.066,6.209c4.732,0,7.765-2.957,8.798-5.988c0.224-0.738,0.299-1.477,0.299-2.07v-6.209H394.347z"/>
		<path fill="#32286A" d="M409.501,483.197c0-3.773-0.072-6.734-0.298-9.689h5.771l0.369,5.916h0.149
			c1.772-3.328,5.914-6.654,11.829-6.654c4.956,0,12.646,2.961,12.646,15.236v21.295h-6.51V488.67c0-5.77-2.145-10.57-8.279-10.57
			c-4.215,0-7.542,3.027-8.727,6.65c-0.296,0.814-0.444,1.922-0.444,3.033v21.518h-6.507V483.197z"/>
		<path fill="#32286A" d="M456.451,464.932v8.576h9.316v4.957h-9.316v19.301c0,4.436,1.256,6.949,4.878,6.949
			c1.775,0,2.807-0.148,3.771-0.441l0.294,4.953c-1.259,0.443-3.249,0.887-5.764,0.887c-3.031,0-5.473-1.033-7.027-2.736
			c-1.775-1.996-2.514-5.176-2.514-9.391v-19.521h-5.546v-4.957h5.546v-6.652L456.451,464.932z"/>
		<path fill="#32286A" d="M474.637,492.586c0.151,8.799,5.695,12.42,12.277,12.42c4.657,0,7.54-0.813,9.905-1.846l1.186,4.656
			c-2.293,1.037-6.29,2.291-11.979,2.291c-11.021,0-17.602-7.318-17.602-18.115c0-10.793,6.361-19.223,16.785-19.223
			c11.758,0,14.79,10.203,14.79,16.785c0,1.332-0.071,2.293-0.221,3.031H474.637z M493.715,487.928
			c0.073-4.066-1.699-10.5-9.023-10.5c-6.653,0-9.464,5.99-9.982,10.5H493.715z M495.193,458.055l-9.021,10.576h-4.584l6.511-10.576
			H495.193z"/>
	</g>
</g>
</svg>
