<?xml version="1.0" encoding="utf-8"?>
<!-- Generator: Adobe Illustrator 14.0.0, SVG Export Plug-In . SVG Version: 6.00 Build 43363)  -->
<!DOCTYPE svg PUBLIC "-//W3C//DTD SVG 1.1//EN" "http://www.w3.org/Graphics/SVG/1.1/DTD/svg11.dtd">
<svg version="1.1" id="Camada_1" xmlns="http://www.w3.org/2000/svg" xmlns:xlink="http://www.w3.org/1999/xlink" x="0px" y="0px"
	 width="700px" height="50px" viewBox="0 0 700 50" enable-background="new 0 0 700 50" xml:space="preserve">
<g>
	<g>
		<rect x="539.221" y="0.828" fill="#3B8AB4" width="0.73" height="48.345"/>
		<g>
			<path fill="#3B8AB4" d="M556.625,17.164V6.341h3.207c2.199,0,3.299,0.887,3.299,2.665c0,1.221-0.607,2.053-1.822,2.498v0.031
				c1.381,0.3,2.072,1.165,2.072,2.587c0,0.972-0.328,1.733-0.988,2.281c-0.609,0.507-1.416,0.761-2.42,0.761H556.625
				L556.625,17.164z M558.576,7.8v3.067h1.037c0.471,0,0.85-0.15,1.139-0.458c0.289-0.302,0.432-0.69,0.432-1.156
				c0-0.459-0.146-0.822-0.447-1.075c-0.299-0.254-0.689-0.378-1.17-0.378H558.576z M558.576,12.327v3.318h1.109
				c0.52,0,0.93-0.147,1.225-0.441c0.299-0.295,0.445-0.701,0.445-1.216c0-1.106-0.576-1.66-1.732-1.66H558.576z"/>
			<path fill="#3B8AB4" d="M565.377,17.164V6.341h2.025v10.822H565.377z"/>
			<path fill="#3B8AB4" d="M569.637,17.164V6.341h3.426c2.178,0,3.268,0.95,3.268,2.851c0,0.662-0.189,1.229-0.564,1.699
				c-0.377,0.469-0.898,0.753-1.559,0.846v0.047c0.547,0.082,0.951,0.501,1.213,1.254l1.43,4.125h-2.131l-1.082-3.523
				c-0.227-0.752-0.734-1.133-1.518-1.133h-0.455v4.653h-2.027V17.164z M571.664,11.054h0.813c1.188,0,1.779-0.549,1.779-1.646
				c0-0.576-0.156-0.991-0.469-1.238c-0.27-0.208-0.709-0.311-1.311-0.311h-0.813V11.054z"/>
			<path fill="#3B8AB4" d="M578.465,17.164V6.341h5.77v1.564h-3.742v2.9h3.537v1.567h-3.537v3.223h3.898v1.567H578.465z"/>
			<path fill="#3B8AB4" d="M594.992,17.164V8.139l-2.779,9.024h-1.428l-2.656-9.024v9.024h-1.822V6.341h2.977l2.279,8.081
				l0.035-0.006l2.34-8.075h2.879v10.822H594.992z"/>
			<path fill="#3B8AB4" d="M599.127,17.164V6.341h5.768v1.564h-3.74v2.9h3.535v1.567h-3.535v3.223h3.896v1.567H599.127z"/>
		</g>
		<g>
			<path fill="#3B8AB4" d="M557.279,23.976v5.84h2.418v0.808h-3.232v-6.647H557.279z"/>
			<path fill="#3B8AB4" d="M560.668,26.117c0.227-0.155,0.455-0.27,0.68-0.339c0.223-0.072,0.463-0.108,0.723-0.108
				c0.393,0,0.723,0.085,0.99,0.262c0.268,0.17,0.451,0.418,0.553,0.739c0.086,0.264,0.131,0.713,0.131,1.35v0.953
				c0,0.364,0.002,0.686,0.01,0.958c0.008,0.271,0.02,0.506,0.031,0.693h-0.711c-0.006-0.114-0.008-0.24-0.008-0.38
				c0-0.17,0.002-0.321,0.008-0.455c-0.162,0.316-0.355,0.543-0.578,0.688c-0.223,0.146-0.5,0.217-0.826,0.217
				c-0.293,0-0.549-0.062-0.77-0.18c-0.223-0.12-0.393-0.29-0.51-0.513c-0.121-0.223-0.178-0.48-0.178-0.771
				c0-0.257,0.047-0.483,0.143-0.68c0.098-0.193,0.238-0.363,0.428-0.501c0.186-0.138,0.412-0.24,0.686-0.308
				c0.27-0.07,0.58-0.104,0.936-0.104c0.213,0,0.408,0.008,0.586,0.021c-0.004-0.418-0.094-0.726-0.264-0.923
				c-0.17-0.196-0.432-0.295-0.783-0.295c-0.227,0-0.436,0.036-0.627,0.11s-0.393,0.192-0.607,0.358L560.668,26.117z
				 M563.006,28.321c-0.172-0.018-0.313-0.025-0.42-0.025c-1.033,0-1.549,0.308-1.549,0.926c0,0.148,0.033,0.278,0.1,0.393
				s0.164,0.201,0.285,0.266c0.119,0.065,0.264,0.097,0.418,0.097c0.287,0,0.518-0.074,0.691-0.217
				c0.17-0.147,0.295-0.343,0.365-0.591C562.971,28.923,563.006,28.643,563.006,28.321z"/>
			<path fill="#3B8AB4" d="M566.09,24.349v1.425h1.111v0.706h-1.111v1.909c0,0.439,0.018,0.755,0.049,0.956
				c0.025,0.177,0.096,0.316,0.209,0.417c0.115,0.101,0.26,0.152,0.432,0.152c0.164,0,0.332-0.052,0.508-0.15v0.782
				c-0.246,0.093-0.486,0.138-0.723,0.138c-0.361,0-0.635-0.088-0.818-0.258c-0.186-0.173-0.307-0.397-0.357-0.678
				c-0.049-0.279-0.074-0.641-0.074-1.086v-2.186h-0.963v-0.706h0.963v-1.117L566.09,24.349z"/>
			<path fill="#3B8AB4" d="M568.912,23.587v0.996h-0.852v-0.996H568.912z M568.896,25.752v4.873h-0.785v-4.873H568.896z"/>
			<path fill="#3B8AB4" d="M570.801,25.752l0.039,0.773c0.32-0.567,0.799-0.853,1.439-0.853c0.352,0,0.633,0.071,0.846,0.222
				c0.211,0.15,0.365,0.347,0.469,0.593c0.102,0.244,0.166,0.511,0.195,0.808c0.031,0.292,0.047,0.648,0.047,1.066v2.264h-0.77
				V28.43c0-0.349-0.008-0.604-0.016-0.766c-0.01-0.16-0.025-0.304-0.053-0.424c-0.057-0.262-0.164-0.461-0.318-0.597
				c-0.152-0.133-0.344-0.203-0.57-0.203c-0.26,0-0.486,0.087-0.686,0.266c-0.201,0.18-0.346,0.422-0.424,0.729
				c-0.023,0.09-0.045,0.192-0.061,0.309s-0.025,0.243-0.029,0.379c-0.002,0.136-0.002,0.374-0.002,0.715v1.785h-0.779V28.22
				c-0.006-0.276-0.01-0.53-0.014-0.763c-0.002-0.23-0.008-0.507-0.016-0.823c-0.006-0.315-0.014-0.609-0.023-0.882H570.801
				L570.801,25.752z"/>
			<path fill="#3B8AB4" d="M580.096,23.976l2.475,6.647h-0.922l-0.596-1.681h-2.779l-0.588,1.681h-0.883l2.434-6.647H580.096z
				 M580.768,28.135l-0.656-1.856c-0.129-0.353-0.229-0.632-0.293-0.833c-0.064-0.202-0.121-0.419-0.17-0.652
				c-0.043,0.179-0.094,0.357-0.15,0.533s-0.168,0.502-0.332,0.972l-0.631,1.833h2.232V28.135z"/>
			<path fill="#3B8AB4" d="M583.92,25.752l0.047,0.783c0.076-0.175,0.176-0.331,0.309-0.46c0.127-0.128,0.275-0.229,0.447-0.299
				c0.17-0.072,0.361-0.106,0.563-0.106c0.316,0,0.578,0.082,0.791,0.251c0.209,0.167,0.357,0.411,0.445,0.727
				c0.277-0.652,0.738-0.978,1.381-0.978c0.299,0,0.541,0.066,0.732,0.199c0.189,0.134,0.332,0.311,0.428,0.527
				c0.096,0.223,0.164,0.466,0.195,0.739c0.029,0.275,0.045,0.585,0.045,0.93v2.558h-0.777v-2.38c0-0.315-0.006-0.56-0.014-0.729
				c-0.01-0.171-0.029-0.309-0.053-0.409c-0.109-0.445-0.348-0.667-0.721-0.667c-0.111,0-0.217,0.026-0.322,0.071
				c-0.105,0.042-0.199,0.112-0.289,0.203c-0.086,0.091-0.162,0.199-0.225,0.321c-0.063,0.124-0.115,0.264-0.148,0.414
				c-0.031,0.112-0.053,0.248-0.063,0.403c-0.012,0.156-0.016,0.393-0.016,0.71v2.064h-0.787v-2.502
				c0-0.335-0.004-0.567-0.012-0.691c-0.006-0.125-0.021-0.234-0.045-0.337c-0.055-0.207-0.143-0.367-0.264-0.483
				c-0.123-0.114-0.268-0.171-0.432-0.171c-0.209,0-0.395,0.072-0.564,0.217c-0.168,0.146-0.299,0.345-0.396,0.603
				c-0.094,0.254-0.141,0.544-0.141,0.863v0.353v2.151h-0.779v-2.74c0-0.867-0.018-1.578-0.055-2.132h0.719V25.752z"/>
			<path fill="#3B8AB4" d="M590.961,28.42c0.055,0.485,0.209,0.865,0.457,1.147c0.252,0.279,0.561,0.419,0.939,0.419
				c0.227,0,0.443-0.035,0.654-0.11c0.213-0.076,0.432-0.192,0.658-0.347v0.865c-0.254,0.13-0.484,0.223-0.691,0.277
				c-0.207,0.054-0.422,0.083-0.652,0.083c-0.324,0-0.617-0.063-0.885-0.184c-0.264-0.124-0.49-0.301-0.676-0.533
				c-0.188-0.229-0.33-0.507-0.43-0.832c-0.102-0.325-0.154-0.686-0.154-1.077c0-0.495,0.08-0.932,0.244-1.313
				c0.164-0.379,0.396-0.674,0.695-0.883c0.305-0.209,0.648-0.313,1.035-0.313c0.451,0,0.809,0.127,1.08,0.386
				c0.27,0.259,0.461,0.598,0.574,1.02c0.111,0.422,0.17,0.887,0.17,1.391h-3.02V28.42z M590.969,27.715h2.229
				c-0.025-0.266-0.08-0.502-0.156-0.703c-0.078-0.201-0.193-0.368-0.35-0.488c-0.152-0.124-0.342-0.187-0.564-0.187
				c-0.305,0-0.561,0.121-0.768,0.369C591.154,26.95,591.025,27.287,590.969,27.715z"/>
			<path fill="#3B8AB4" d="M594.92,25.752h0.719l0.037,0.867c0.123-0.306,0.291-0.536,0.492-0.693
				c0.201-0.158,0.438-0.235,0.707-0.235c0.139,0,0.277,0.021,0.42,0.062v0.83c-0.133-0.057-0.256-0.081-0.367-0.081
				c-0.268,0-0.494,0.089-0.674,0.272c-0.178,0.183-0.309,0.415-0.389,0.701c-0.08,0.285-0.121,0.579-0.121,0.887v0.353v1.913h-0.77
				v-2.969C594.973,27.179,594.953,26.541,594.92,25.752z"/>
			<path fill="#3B8AB4" d="M598.795,23.587v0.996h-0.85v-0.996H598.795z M598.777,25.752v4.873h-0.781v-4.873H598.777z"/>
			<path fill="#3B8AB4" d="M602.754,25.89l-0.051,0.799c-0.211-0.147-0.465-0.22-0.766-0.22c-0.27,0-0.512,0.072-0.73,0.212
				c-0.217,0.146-0.385,0.341-0.506,0.599c-0.119,0.256-0.178,0.546-0.178,0.871c0,0.341,0.059,0.646,0.176,0.916
				c0.115,0.27,0.279,0.475,0.492,0.625c0.211,0.149,0.455,0.223,0.729,0.223c0.166,0,0.313-0.026,0.443-0.073
				c0.131-0.051,0.275-0.128,0.43-0.236l0.064,0.827c-0.158,0.087-0.318,0.148-0.482,0.191c-0.166,0.039-0.346,0.061-0.549,0.061
				c-0.416,0-0.787-0.105-1.111-0.314c-0.326-0.207-0.578-0.497-0.754-0.871c-0.174-0.376-0.264-0.81-0.264-1.307
				c0-0.473,0.092-0.9,0.271-1.282c0.182-0.384,0.432-0.681,0.756-0.896c0.32-0.217,0.682-0.325,1.076-0.325
				C602.129,25.69,602.445,25.755,602.754,25.89z"/>
			<path fill="#3B8AB4" d="M603.85,26.117c0.229-0.155,0.455-0.27,0.68-0.339c0.225-0.072,0.467-0.108,0.723-0.108
				c0.393,0,0.721,0.085,0.99,0.262c0.266,0.17,0.449,0.418,0.553,0.739c0.088,0.264,0.129,0.713,0.129,1.35v0.953
				c0,0.364,0.006,0.686,0.014,0.958c0.006,0.271,0.016,0.506,0.029,0.693h-0.709c-0.006-0.114-0.012-0.24-0.012-0.38
				c0-0.17,0.006-0.321,0.012-0.455c-0.164,0.316-0.357,0.543-0.58,0.688c-0.223,0.146-0.498,0.217-0.828,0.217
				c-0.289,0-0.545-0.062-0.768-0.18c-0.219-0.12-0.391-0.29-0.51-0.513c-0.117-0.223-0.178-0.48-0.178-0.771
				c0-0.257,0.049-0.483,0.145-0.68c0.096-0.193,0.238-0.363,0.424-0.501s0.412-0.24,0.686-0.308
				c0.271-0.07,0.586-0.104,0.939-0.104c0.211,0,0.408,0.008,0.582,0.021c-0.004-0.418-0.092-0.726-0.262-0.923
				c-0.172-0.196-0.428-0.295-0.781-0.295c-0.23,0-0.439,0.036-0.629,0.11c-0.188,0.074-0.393,0.192-0.607,0.358L603.85,26.117z
				 M606.189,28.321c-0.174-0.018-0.314-0.025-0.424-0.025c-1.031,0-1.547,0.308-1.547,0.926c0,0.148,0.031,0.278,0.102,0.393
				c0.063,0.114,0.16,0.201,0.281,0.266c0.125,0.065,0.264,0.097,0.42,0.097c0.285,0,0.516-0.074,0.689-0.217
				c0.174-0.147,0.297-0.343,0.367-0.591C606.154,28.923,606.189,28.643,606.189,28.321z"/>
			<path fill="#3B8AB4" d="M608.877,25.752l0.035,0.773c0.32-0.567,0.799-0.853,1.439-0.853c0.352,0,0.633,0.071,0.846,0.222
				c0.211,0.15,0.371,0.347,0.469,0.593c0.102,0.244,0.166,0.511,0.197,0.808c0.029,0.292,0.045,0.648,0.045,1.066v2.264h-0.77
				V28.43c0-0.349-0.008-0.604-0.016-0.766c-0.008-0.16-0.025-0.304-0.049-0.424c-0.061-0.262-0.168-0.461-0.32-0.597
				c-0.15-0.133-0.342-0.203-0.572-0.203c-0.256,0-0.484,0.087-0.686,0.266c-0.201,0.18-0.342,0.422-0.424,0.729
				c-0.023,0.09-0.045,0.192-0.061,0.309s-0.023,0.243-0.025,0.379c-0.004,0.136-0.006,0.374-0.006,0.715v1.785h-0.779V28.22
				c-0.006-0.276-0.01-0.53-0.012-0.763c-0.002-0.23-0.008-0.507-0.016-0.823c-0.004-0.315-0.016-0.609-0.025-0.882H608.877
				L608.877,25.752z"/>
			<path fill="#3B8AB4" d="M615.656,26.117c0.227-0.155,0.455-0.27,0.68-0.339c0.223-0.072,0.463-0.108,0.723-0.108
				c0.393,0,0.721,0.085,0.99,0.262c0.268,0.17,0.451,0.418,0.553,0.739c0.088,0.264,0.131,0.713,0.131,1.35v0.953
				c0,0.364,0.004,0.686,0.01,0.958c0.008,0.271,0.02,0.506,0.031,0.693h-0.709c-0.008-0.114-0.01-0.24-0.01-0.38
				c0-0.17,0.002-0.321,0.01-0.455c-0.164,0.316-0.357,0.543-0.58,0.688c-0.223,0.146-0.5,0.217-0.826,0.217
				c-0.293,0-0.547-0.062-0.77-0.18c-0.223-0.12-0.393-0.29-0.512-0.513s-0.176-0.48-0.176-0.771c0-0.257,0.047-0.483,0.143-0.68
				c0.098-0.193,0.238-0.363,0.426-0.501s0.414-0.24,0.686-0.308c0.273-0.07,0.584-0.104,0.938-0.104
				c0.215,0,0.408,0.008,0.586,0.021c-0.006-0.418-0.094-0.726-0.264-0.923c-0.17-0.196-0.432-0.295-0.783-0.295
				c-0.227,0-0.438,0.036-0.627,0.11c-0.191,0.074-0.393,0.192-0.607,0.358L615.656,26.117z M617.994,28.321
				c-0.17-0.018-0.313-0.025-0.422-0.025c-1.033,0-1.545,0.308-1.545,0.926c0,0.148,0.031,0.278,0.096,0.393
				c0.068,0.114,0.166,0.201,0.285,0.266c0.123,0.065,0.266,0.097,0.42,0.097c0.287,0,0.518-0.074,0.689-0.217
				c0.172-0.147,0.297-0.343,0.367-0.591C617.957,28.923,617.994,28.643,617.994,28.321z"/>
			<path fill="#3B8AB4" d="M620.682,25.752l0.037,0.773c0.318-0.567,0.797-0.853,1.441-0.853c0.35,0,0.631,0.071,0.844,0.222
				s0.367,0.347,0.469,0.593c0.098,0.244,0.166,0.511,0.197,0.808c0.027,0.292,0.047,0.648,0.047,1.066v2.264h-0.771V28.43
				c0-0.349-0.006-0.604-0.016-0.766c-0.012-0.16-0.027-0.304-0.053-0.424c-0.059-0.262-0.164-0.461-0.316-0.597
				c-0.154-0.133-0.346-0.203-0.574-0.203c-0.258,0-0.486,0.087-0.688,0.266c-0.199,0.18-0.34,0.422-0.422,0.729
				c-0.025,0.09-0.047,0.192-0.063,0.309c-0.014,0.116-0.021,0.243-0.023,0.379s-0.006,0.374-0.006,0.715v1.785h-0.779V28.22
				c-0.004-0.276-0.01-0.53-0.012-0.763c-0.004-0.23-0.008-0.507-0.014-0.823c-0.008-0.315-0.018-0.609-0.029-0.882H620.682
				L620.682,25.752z"/>
			<path fill="#3B8AB4" d="M628.564,23.448v4.903c0,0.254,0.008,0.634,0.021,1.143c0.016,0.514,0.025,0.889,0.039,1.129h-0.758
				v-0.821c-0.172,0.305-0.373,0.529-0.605,0.674c-0.234,0.144-0.518,0.219-0.842,0.219c-0.367,0-0.689-0.103-0.969-0.304
				c-0.277-0.203-0.494-0.489-0.641-0.865c-0.152-0.378-0.225-0.817-0.225-1.313c0-0.383,0.043-0.724,0.127-1.029
				c0.084-0.305,0.211-0.573,0.379-0.807s0.361-0.409,0.584-0.528c0.223-0.118,0.471-0.175,0.744-0.175
				c0.594,0,1.057,0.279,1.387,0.846c0-0.05-0.002-0.116-0.006-0.205c-0.002-0.088-0.008-0.175-0.01-0.258
				c-0.006-0.089-0.008-0.155-0.008-0.205v-2.402H628.564z M626.609,26.44c-0.174,0-0.336,0.041-0.48,0.126
				c-0.145,0.083-0.271,0.205-0.379,0.362c-0.109,0.16-0.193,0.353-0.252,0.569c-0.061,0.221-0.088,0.455-0.088,0.701
				c0,0.507,0.111,0.917,0.332,1.241c0.219,0.323,0.5,0.483,0.842,0.483c0.23,0,0.438-0.071,0.623-0.225
				c0.184-0.15,0.33-0.36,0.434-0.625c0.105-0.268,0.158-0.562,0.158-0.883c0-0.325-0.051-0.62-0.158-0.889
				c-0.102-0.27-0.248-0.482-0.428-0.632C627.029,26.517,626.828,26.44,626.609,26.44z"/>
			<path fill="#3B8AB4" d="M636.32,24.225l-0.068,0.91c-0.215-0.146-0.41-0.248-0.588-0.305c-0.182-0.058-0.383-0.084-0.605-0.084
				c-0.314,0-0.604,0.058-0.869,0.177c-0.264,0.119-0.494,0.289-0.688,0.512c-0.195,0.223-0.346,0.491-0.453,0.797
				c-0.104,0.304-0.158,0.646-0.158,1.013c0,0.486,0.094,0.93,0.287,1.324c0.191,0.394,0.455,0.705,0.791,0.924
				c0.336,0.223,0.711,0.333,1.127,0.333c0.387,0,0.797-0.097,1.221-0.296l0.064,0.912c-0.223,0.085-0.428,0.145-0.609,0.182
				c-0.182,0.031-0.398,0.049-0.65,0.049c-0.602,0-1.135-0.132-1.605-0.407c-0.469-0.267-0.838-0.656-1.102-1.173
				c-0.264-0.516-0.398-1.123-0.398-1.826c0-0.645,0.127-1.216,0.379-1.723s0.607-0.9,1.066-1.184
				c0.461-0.283,0.979-0.425,1.555-0.425C635.518,23.94,635.951,24.033,636.32,24.225z"/>
			<path fill="#3B8AB4" d="M637.41,26.117c0.23-0.155,0.459-0.27,0.682-0.339c0.225-0.072,0.465-0.108,0.721-0.108
				c0.393,0,0.723,0.085,0.99,0.262c0.268,0.17,0.453,0.418,0.557,0.739c0.084,0.264,0.129,0.713,0.129,1.35v0.953
				c0,0.364,0.002,0.686,0.01,0.958c0.008,0.271,0.02,0.506,0.031,0.693h-0.711c-0.006-0.114-0.01-0.24-0.01-0.38
				c0-0.17,0.004-0.321,0.01-0.455c-0.162,0.316-0.354,0.543-0.576,0.688c-0.225,0.146-0.502,0.217-0.832,0.217
				c-0.287,0-0.543-0.062-0.766-0.18c-0.221-0.12-0.391-0.29-0.51-0.513s-0.18-0.48-0.18-0.771c0-0.257,0.051-0.483,0.145-0.68
				c0.098-0.193,0.238-0.363,0.424-0.501c0.191-0.138,0.418-0.24,0.689-0.308c0.268-0.07,0.582-0.104,0.936-0.104
				c0.213,0,0.408,0.008,0.588,0.021c-0.008-0.418-0.096-0.726-0.264-0.923c-0.172-0.196-0.432-0.295-0.785-0.295
				c-0.23,0-0.436,0.036-0.625,0.11c-0.191,0.074-0.393,0.192-0.607,0.358L637.41,26.117z M639.75,28.321
				c-0.172-0.018-0.314-0.025-0.424-0.025c-1.031,0-1.547,0.308-1.547,0.926c0,0.148,0.035,0.278,0.104,0.393
				c0.064,0.114,0.162,0.201,0.285,0.266c0.119,0.065,0.258,0.097,0.416,0.097c0.285,0,0.516-0.074,0.693-0.217
				c0.17-0.147,0.293-0.343,0.363-0.591C639.713,28.923,639.75,28.643,639.75,28.321z"/>
			<path fill="#3B8AB4" d="M641.717,25.752h0.721l0.037,0.867c0.125-0.306,0.289-0.536,0.492-0.693
				c0.201-0.158,0.436-0.235,0.705-0.235c0.139,0,0.281,0.021,0.422,0.062v0.83c-0.133-0.057-0.256-0.081-0.367-0.081
				c-0.27,0-0.494,0.089-0.674,0.272c-0.176,0.183-0.309,0.415-0.389,0.701c-0.08,0.285-0.121,0.579-0.121,0.887v0.353v1.913h-0.77
				v-2.969C641.773,27.179,641.754,26.541,641.717,25.752z"/>
			<path fill="#3B8AB4" d="M645.596,23.587v0.996h-0.854v-0.996H645.596z M645.576,25.752v4.873h-0.783v-4.873H645.576z"/>
			<path fill="#3B8AB4" d="M647.555,23.448v2.581c0,0.191-0.008,0.378-0.023,0.568c0.104-0.279,0.287-0.502,0.553-0.672
				c0.262-0.171,0.557-0.256,0.887-0.256c0.271,0,0.521,0.06,0.744,0.171c0.221,0.117,0.412,0.278,0.572,0.499
				c0.162,0.223,0.283,0.48,0.365,0.78c0.084,0.303,0.127,0.645,0.127,1.024c0,0.382-0.043,0.73-0.127,1.046
				c-0.082,0.312-0.205,0.579-0.369,0.808c-0.16,0.227-0.355,0.4-0.576,0.517c-0.227,0.118-0.475,0.18-0.744,0.18
				c-0.324,0-0.611-0.083-0.863-0.237c-0.248-0.161-0.445-0.38-0.576-0.665v0.833h-0.744v-7.177H647.555L647.555,23.448z
				 M648.807,26.44c-0.23,0-0.443,0.076-0.631,0.227c-0.189,0.153-0.338,0.362-0.445,0.63c-0.105,0.269-0.156,0.563-0.156,0.893
				c0,0.317,0.051,0.609,0.154,0.877c0.105,0.27,0.25,0.479,0.436,0.631c0.188,0.151,0.391,0.227,0.615,0.227
				c0.221,0,0.424-0.071,0.605-0.223c0.178-0.148,0.316-0.356,0.418-0.625c0.1-0.27,0.152-0.569,0.152-0.895
				c0-0.518-0.105-0.938-0.316-1.257C649.428,26.598,649.15,26.44,648.807,26.44z"/>
			<path fill="#3B8AB4" d="M652.502,23.448v2.581c0,0.191-0.008,0.378-0.023,0.568c0.105-0.279,0.289-0.502,0.553-0.672
				c0.262-0.171,0.559-0.256,0.887-0.256c0.273,0,0.521,0.06,0.744,0.171c0.219,0.117,0.414,0.278,0.572,0.499
				c0.16,0.223,0.283,0.48,0.367,0.78c0.082,0.303,0.125,0.645,0.125,1.024c0,0.382-0.043,0.73-0.125,1.046
				c-0.084,0.312-0.207,0.579-0.369,0.808c-0.16,0.227-0.355,0.4-0.582,0.517c-0.221,0.118-0.471,0.18-0.74,0.18
				c-0.324,0-0.611-0.083-0.863-0.237c-0.248-0.161-0.443-0.38-0.576-0.665v0.833h-0.744v-7.177H652.502L652.502,23.448z
				 M653.754,26.44c-0.232,0-0.445,0.076-0.633,0.227c-0.189,0.153-0.336,0.362-0.443,0.63c-0.104,0.269-0.158,0.563-0.158,0.893
				c0,0.317,0.055,0.609,0.156,0.877c0.104,0.27,0.248,0.479,0.434,0.631c0.188,0.151,0.393,0.227,0.619,0.227
				c0.219,0,0.42-0.071,0.602-0.223c0.178-0.148,0.318-0.356,0.418-0.625c0.102-0.27,0.152-0.569,0.152-0.895
				c0-0.518-0.105-0.938-0.314-1.257C654.373,26.598,654.096,26.44,653.754,26.44z"/>
			<path fill="#3B8AB4" d="M657.174,28.42c0.055,0.485,0.209,0.865,0.457,1.147c0.252,0.279,0.563,0.419,0.939,0.419
				c0.223,0,0.443-0.035,0.654-0.11c0.213-0.076,0.432-0.192,0.656-0.347v0.865c-0.254,0.13-0.482,0.223-0.689,0.277
				c-0.207,0.054-0.422,0.083-0.652,0.083c-0.322,0-0.617-0.063-0.885-0.184c-0.264-0.124-0.492-0.301-0.678-0.533
				c-0.186-0.229-0.328-0.507-0.428-0.832c-0.104-0.325-0.152-0.686-0.152-1.077c0-0.495,0.078-0.932,0.242-1.313
				c0.162-0.379,0.396-0.674,0.695-0.883c0.305-0.209,0.65-0.313,1.035-0.313c0.449,0,0.809,0.127,1.08,0.386
				c0.27,0.259,0.461,0.598,0.576,1.02c0.109,0.422,0.168,0.887,0.168,1.391h-3.02V28.42z M657.182,27.715h2.229
				c-0.025-0.266-0.078-0.502-0.156-0.703s-0.193-0.368-0.352-0.488c-0.15-0.124-0.34-0.187-0.563-0.187
				c-0.305,0-0.563,0.121-0.768,0.369C657.367,26.95,657.236,27.287,657.182,27.715z"/>
			<path fill="#3B8AB4" d="M661.359,26.117c0.229-0.155,0.455-0.27,0.678-0.339c0.225-0.072,0.465-0.108,0.723-0.108
				c0.395,0,0.723,0.085,0.988,0.262c0.268,0.17,0.453,0.418,0.557,0.739c0.086,0.264,0.129,0.713,0.129,1.35v0.953
				c0,0.364,0.004,0.686,0.012,0.958c0.008,0.271,0.018,0.506,0.031,0.693h-0.713c-0.004-0.114-0.008-0.24-0.008-0.38
				c0-0.17,0.004-0.321,0.008-0.455c-0.16,0.316-0.354,0.543-0.578,0.688c-0.221,0.146-0.496,0.217-0.826,0.217
				c-0.293,0-0.547-0.062-0.768-0.18c-0.223-0.12-0.395-0.29-0.512-0.513c-0.121-0.223-0.176-0.48-0.176-0.771
				c0-0.257,0.045-0.483,0.141-0.68c0.1-0.193,0.238-0.363,0.424-0.501c0.189-0.138,0.418-0.24,0.689-0.308
				c0.27-0.07,0.58-0.104,0.936-0.104c0.213,0,0.408,0.008,0.588,0.021c-0.006-0.418-0.094-0.726-0.266-0.923
				c-0.17-0.196-0.432-0.295-0.781-0.295c-0.229,0-0.438,0.036-0.627,0.11c-0.191,0.074-0.395,0.192-0.609,0.358L661.359,26.117z
				 M663.697,28.321c-0.174-0.018-0.313-0.025-0.422-0.025c-1.031,0-1.549,0.308-1.549,0.926c0,0.148,0.033,0.278,0.102,0.393
				c0.066,0.114,0.162,0.201,0.283,0.266c0.123,0.065,0.262,0.097,0.418,0.097c0.287,0,0.518-0.074,0.691-0.217
				c0.172-0.147,0.295-0.343,0.367-0.591C663.66,28.923,663.697,28.643,663.697,28.321z"/>
			<path fill="#3B8AB4" d="M666.383,25.752l0.037,0.773c0.318-0.567,0.801-0.853,1.439-0.853c0.35,0,0.633,0.071,0.846,0.222
				s0.369,0.347,0.467,0.593c0.1,0.244,0.168,0.511,0.199,0.808c0.029,0.292,0.045,0.648,0.045,1.066v2.264h-0.77V28.43
				c0-0.349-0.006-0.604-0.016-0.766c-0.01-0.16-0.025-0.304-0.051-0.424c-0.059-0.262-0.166-0.461-0.318-0.597
				c-0.152-0.133-0.344-0.203-0.57-0.203c-0.26,0-0.486,0.087-0.688,0.266c-0.205,0.18-0.344,0.422-0.424,0.729
				c-0.023,0.09-0.045,0.192-0.061,0.309s-0.023,0.243-0.027,0.379c-0.002,0.136-0.004,0.374-0.004,0.715v1.785h-0.779V28.22
				c-0.006-0.276-0.012-0.53-0.014-0.763c-0.002-0.23-0.008-0.507-0.016-0.823c-0.006-0.315-0.016-0.609-0.023-0.882H666.383
				L666.383,25.752z"/>
			<path fill="#3B8AB4" d="M677.049,24.225l-0.066,0.91c-0.217-0.146-0.412-0.248-0.592-0.305c-0.178-0.058-0.377-0.084-0.602-0.084
				c-0.316,0-0.605,0.058-0.867,0.177c-0.264,0.119-0.492,0.289-0.691,0.512c-0.193,0.223-0.344,0.491-0.451,0.797
				c-0.107,0.304-0.158,0.646-0.158,1.013c0,0.486,0.096,0.93,0.287,1.324c0.189,0.394,0.453,0.705,0.787,0.924
				c0.338,0.223,0.715,0.333,1.131,0.333c0.387,0,0.795-0.097,1.223-0.296l0.063,0.912c-0.223,0.085-0.424,0.145-0.609,0.182
				c-0.184,0.031-0.4,0.049-0.652,0.049c-0.6,0-1.135-0.132-1.604-0.407c-0.469-0.267-0.84-0.656-1.104-1.173
				c-0.266-0.516-0.396-1.123-0.396-1.826c0-0.645,0.125-1.216,0.377-1.723c0.254-0.507,0.609-0.9,1.068-1.184
				c0.459-0.283,0.977-0.425,1.553-0.425C676.25,23.94,676.684,24.033,677.049,24.225z"/>
			<path fill="#3B8AB4" d="M678.432,28.42c0.059,0.485,0.209,0.865,0.459,1.147c0.25,0.279,0.563,0.419,0.941,0.419
				c0.223,0,0.439-0.035,0.65-0.11c0.215-0.076,0.434-0.192,0.66-0.347v0.865c-0.256,0.13-0.486,0.223-0.693,0.277
				c-0.207,0.054-0.422,0.083-0.65,0.083c-0.324,0-0.619-0.063-0.885-0.184c-0.266-0.124-0.492-0.301-0.676-0.533
				c-0.188-0.229-0.332-0.507-0.432-0.832c-0.102-0.325-0.15-0.686-0.15-1.077c0-0.495,0.078-0.932,0.24-1.313
				c0.164-0.379,0.395-0.674,0.697-0.883c0.305-0.209,0.646-0.313,1.033-0.313c0.453,0,0.813,0.127,1.082,0.386
				s0.459,0.598,0.572,1.02c0.115,0.422,0.168,0.887,0.168,1.391h-3.018V28.42z M678.439,27.715h2.232
				c-0.029-0.266-0.084-0.502-0.16-0.703c-0.078-0.201-0.195-0.368-0.348-0.488c-0.154-0.124-0.342-0.187-0.563-0.187
				c-0.309,0-0.564,0.121-0.771,0.369C678.625,26.95,678.498,27.287,678.439,27.715z"/>
			<path fill="#3B8AB4" d="M683.111,25.752l0.035,0.773c0.32-0.567,0.799-0.853,1.441-0.853c0.352,0,0.631,0.071,0.846,0.222
				c0.213,0.15,0.367,0.347,0.469,0.593c0.098,0.244,0.164,0.511,0.195,0.808c0.029,0.292,0.047,0.648,0.047,1.066v2.264h-0.771
				V28.43c0-0.349-0.004-0.604-0.016-0.766c-0.01-0.16-0.025-0.304-0.051-0.424c-0.059-0.262-0.166-0.461-0.318-0.597
				c-0.152-0.133-0.344-0.203-0.572-0.203c-0.258,0-0.486,0.087-0.688,0.266c-0.199,0.18-0.34,0.422-0.422,0.729
				c-0.025,0.09-0.047,0.192-0.061,0.309c-0.016,0.116-0.023,0.243-0.025,0.379c-0.004,0.136-0.006,0.374-0.006,0.715v1.785h-0.779
				V28.22c-0.006-0.276-0.01-0.53-0.014-0.763c-0.002-0.23-0.008-0.507-0.016-0.823c-0.004-0.315-0.016-0.609-0.025-0.882H683.111
				L683.111,25.752z"/>
			<path fill="#3B8AB4" d="M688.4,24.349v1.425h1.113v0.706H688.4v1.909c0,0.439,0.016,0.755,0.049,0.956
				c0.023,0.177,0.096,0.316,0.205,0.417c0.115,0.101,0.26,0.152,0.438,0.152c0.162,0,0.33-0.052,0.506-0.15v0.782
				c-0.246,0.093-0.488,0.138-0.721,0.138c-0.365,0-0.641-0.088-0.824-0.258c-0.184-0.173-0.301-0.397-0.354-0.678
				c-0.053-0.279-0.078-0.641-0.078-1.086v-2.186h-0.963v-0.706h0.963v-1.117L688.4,24.349z"/>
			<path fill="#3B8AB4" d="M690.941,28.42c0.059,0.485,0.209,0.865,0.461,1.147c0.252,0.279,0.563,0.419,0.939,0.419
				c0.223,0,0.441-0.035,0.654-0.11c0.211-0.076,0.428-0.192,0.656-0.347v0.865c-0.254,0.13-0.484,0.223-0.691,0.277
				c-0.205,0.054-0.424,0.083-0.654,0.083c-0.322,0-0.617-0.063-0.881-0.184c-0.268-0.124-0.492-0.301-0.678-0.533
				c-0.186-0.229-0.33-0.507-0.432-0.832c-0.098-0.325-0.15-0.686-0.15-1.077c0-0.495,0.08-0.932,0.244-1.313
				c0.16-0.379,0.393-0.674,0.695-0.883c0.305-0.209,0.646-0.313,1.031-0.313c0.453,0,0.813,0.127,1.084,0.386
				c0.268,0.259,0.461,0.598,0.572,1.02c0.113,0.422,0.17,0.887,0.17,1.391h-3.021V28.42z M690.953,27.715h2.229
				c-0.027-0.266-0.078-0.502-0.158-0.703s-0.195-0.368-0.348-0.488c-0.156-0.124-0.342-0.187-0.564-0.187
				c-0.307,0-0.563,0.121-0.768,0.369C691.139,26.95,691.008,27.287,690.953,27.715z"/>
			<path fill="#3B8AB4" d="M694.902,25.752h0.721l0.037,0.867c0.125-0.306,0.289-0.536,0.49-0.693
				c0.203-0.158,0.438-0.235,0.707-0.235c0.137,0,0.279,0.021,0.422,0.062v0.83c-0.135-0.057-0.258-0.081-0.367-0.081
				c-0.27,0-0.496,0.089-0.676,0.272c-0.174,0.183-0.309,0.415-0.387,0.701c-0.08,0.285-0.123,0.579-0.123,0.887v0.353v1.913h-0.77
				v-2.969C694.957,27.179,694.939,26.541,694.902,25.752z"/>
			<path fill="#3B8AB4" d="M560.359,41.863c0,0.492-0.094,0.934-0.275,1.325c-0.184,0.387-0.439,0.688-0.771,0.904
				c-0.33,0.219-0.703,0.323-1.117,0.323c-0.408,0-0.771-0.11-1.096-0.327c-0.322-0.219-0.576-0.527-0.762-0.92
				c-0.184-0.396-0.275-0.829-0.275-1.306c0-0.377,0.053-0.722,0.156-1.033c0.105-0.316,0.254-0.589,0.449-0.817
				c0.193-0.234,0.42-0.415,0.688-0.542c0.264-0.124,0.547-0.188,0.85-0.188c0.309,0,0.598,0.063,0.859,0.187
				c0.266,0.122,0.496,0.3,0.689,0.532c0.199,0.232,0.348,0.513,0.447,0.829C560.307,41.149,560.359,41.492,560.359,41.863z
				 M559.533,41.885c0-0.269-0.033-0.519-0.098-0.755c-0.068-0.238-0.158-0.441-0.277-0.608c-0.119-0.168-0.256-0.298-0.416-0.389
				c-0.16-0.089-0.338-0.138-0.525-0.138c-0.383,0-0.701,0.176-0.953,0.528s-0.377,0.794-0.377,1.33
				c0,0.356,0.055,0.672,0.168,0.957c0.115,0.28,0.271,0.502,0.473,0.656c0.203,0.155,0.432,0.232,0.689,0.232
				c0.248,0,0.473-0.077,0.674-0.23c0.199-0.151,0.359-0.37,0.471-0.65C559.477,42.541,559.533,42.228,559.533,41.885z"/>
			<path fill="#3B8AB4" d="M562.01,39.412l0.039,0.774c0.316-0.571,0.799-0.855,1.439-0.855c0.352,0,0.633,0.075,0.846,0.225
				c0.211,0.149,0.365,0.347,0.467,0.591c0.104,0.243,0.166,0.511,0.197,0.807c0.029,0.295,0.047,0.651,0.047,1.071v2.26h-0.771
				V42.09c0-0.351-0.006-0.605-0.016-0.765c-0.01-0.162-0.023-0.306-0.051-0.426c-0.061-0.262-0.166-0.459-0.318-0.597
				c-0.152-0.134-0.344-0.203-0.57-0.203c-0.26,0-0.486,0.087-0.689,0.27c-0.197,0.176-0.342,0.418-0.42,0.729
				c-0.027,0.087-0.047,0.188-0.063,0.304c-0.014,0.12-0.023,0.244-0.027,0.384c-0.002,0.134-0.004,0.372-0.004,0.713v1.785h-0.779
				v-2.405c-0.006-0.274-0.012-0.528-0.012-0.761c-0.002-0.232-0.01-0.508-0.016-0.823s-0.016-0.609-0.027-0.883H562.01
				L562.01,39.412z"/>
			<path fill="#3B8AB4" d="M573.098,37.637v6.647h-0.813v-3.052h-2.77v3.052h-0.813v-6.647h0.813v2.788h2.77v-2.788H573.098z"/>
			<path fill="#3B8AB4" d="M574.947,42.08c0.059,0.484,0.211,0.864,0.461,1.146c0.252,0.281,0.561,0.423,0.939,0.423
				c0.223,0,0.443-0.039,0.654-0.114c0.213-0.074,0.43-0.192,0.656-0.347v0.865c-0.254,0.13-0.482,0.223-0.689,0.276
				c-0.207,0.059-0.424,0.084-0.654,0.084c-0.324,0-0.617-0.063-0.883-0.185s-0.492-0.3-0.678-0.53s-0.332-0.509-0.432-0.835
				c-0.1-0.325-0.15-0.685-0.15-1.074c0-0.496,0.08-0.934,0.242-1.313c0.162-0.38,0.395-0.672,0.697-0.885
				c0.305-0.208,0.646-0.316,1.033-0.316c0.451,0,0.811,0.13,1.08,0.39c0.27,0.258,0.463,0.599,0.572,1.019
				c0.115,0.424,0.174,0.887,0.174,1.39h-3.023V42.08z M574.959,41.374h2.229c-0.027-0.266-0.08-0.498-0.156-0.703
				c-0.082-0.201-0.197-0.364-0.352-0.488s-0.34-0.188-0.563-0.188c-0.309,0-0.564,0.126-0.768,0.368
				C575.145,40.61,575.014,40.947,574.959,41.374z"/>
			<path fill="#3B8AB4" d="M579.133,39.778c0.227-0.155,0.455-0.27,0.68-0.341s0.465-0.106,0.723-0.106
				c0.393,0,0.725,0.085,0.99,0.262c0.268,0.17,0.451,0.42,0.555,0.737c0.088,0.266,0.131,0.717,0.131,1.352v0.951
				c0,0.365,0.004,0.687,0.012,0.962c0.004,0.271,0.018,0.504,0.027,0.691h-0.709c-0.004-0.116-0.01-0.24-0.01-0.38
				c0-0.17,0.006-0.323,0.01-0.457c-0.164,0.315-0.355,0.546-0.58,0.689c-0.223,0.144-0.498,0.219-0.826,0.219
				c-0.291,0-0.547-0.063-0.77-0.182c-0.221-0.118-0.391-0.291-0.508-0.512c-0.121-0.223-0.18-0.481-0.18-0.771
				c0-0.259,0.049-0.483,0.145-0.682c0.096-0.195,0.238-0.364,0.424-0.501c0.188-0.138,0.414-0.24,0.689-0.311
				c0.27-0.067,0.58-0.101,0.936-0.101c0.213,0,0.408,0.004,0.584,0.02c-0.004-0.418-0.092-0.728-0.264-0.922
				c-0.168-0.197-0.43-0.296-0.779-0.296c-0.23,0-0.438,0.037-0.629,0.112c-0.191,0.071-0.393,0.191-0.607,0.356L579.133,39.778z
				 M581.475,41.981c-0.174-0.02-0.316-0.026-0.426-0.026c-1.031,0-1.545,0.308-1.545,0.925c0,0.147,0.033,0.279,0.1,0.394
				c0.068,0.116,0.164,0.203,0.285,0.265c0.123,0.068,0.262,0.1,0.416,0.1c0.287,0,0.518-0.072,0.693-0.219
				c0.17-0.147,0.295-0.345,0.365-0.589C581.438,42.582,581.475,42.303,581.475,41.981z"/>
			<path fill="#3B8AB4" d="M584.215,37.11v7.174h-0.787V37.11H584.215z"/>
			<path fill="#3B8AB4" d="M586.521,38.007v1.425h1.113v0.707h-1.113v1.911c0,0.434,0.018,0.755,0.049,0.956
				c0.023,0.177,0.094,0.313,0.207,0.415c0.115,0.103,0.26,0.154,0.438,0.154c0.158,0,0.326-0.052,0.504-0.149v0.781
				c-0.248,0.091-0.488,0.135-0.719,0.135c-0.367,0-0.641-0.083-0.824-0.257c-0.184-0.173-0.301-0.396-0.354-0.674
				c-0.053-0.281-0.078-0.644-0.078-1.087v-2.188h-0.963v-0.705h0.963v-1.117L586.521,38.007z"/>
			<path fill="#3B8AB4" d="M589.334,37.11v2.333c0,0.254-0.01,0.505-0.027,0.755c0.146-0.292,0.336-0.509,0.568-0.652
				c0.232-0.146,0.51-0.215,0.826-0.215c0.408,0,0.729,0.106,0.961,0.321s0.393,0.496,0.479,0.846
				c0.088,0.351,0.129,0.766,0.129,1.237v2.551h-0.777v-2.112c0-0.626-0.023-1.048-0.07-1.267c-0.061-0.266-0.166-0.467-0.316-0.604
				c-0.15-0.134-0.34-0.203-0.568-0.203c-0.166,0-0.322,0.041-0.473,0.122c-0.15,0.079-0.281,0.199-0.395,0.349
				c-0.111,0.15-0.193,0.325-0.244,0.528c-0.021,0.066-0.037,0.159-0.055,0.273c-0.02,0.114-0.029,0.236-0.031,0.362
				c-0.006,0.127-0.008,0.333-0.008,0.617v1.933h-0.787V37.11H589.334z"/>
			<path fill="#3B8AB4" d="M598.611,37.759l-0.102,0.836c-0.408-0.182-0.764-0.269-1.07-0.269c-0.207,0-0.387,0.034-0.541,0.112
				c-0.158,0.077-0.275,0.182-0.361,0.321c-0.084,0.138-0.127,0.3-0.127,0.484c0,0.286,0.084,0.509,0.262,0.662
				c0.174,0.152,0.48,0.358,0.922,0.625c0.439,0.264,0.768,0.53,0.988,0.804c0.221,0.27,0.33,0.629,0.33,1.076
				c0,0.388-0.08,0.74-0.242,1.048s-0.393,0.544-0.689,0.711c-0.297,0.166-0.635,0.246-1.021,0.246
				c-0.455,0-0.891-0.088-1.301-0.262l0.082-0.896c0.422,0.232,0.797,0.349,1.123,0.349c0.23,0,0.436-0.045,0.615-0.134
				c0.178-0.091,0.318-0.223,0.414-0.393c0.096-0.171,0.146-0.368,0.146-0.601c0-0.331-0.098-0.583-0.291-0.755
				c-0.191-0.169-0.5-0.37-0.916-0.606c-0.418-0.232-0.734-0.477-0.949-0.727c-0.215-0.251-0.322-0.607-0.322-1.063
				c0-0.356,0.074-0.672,0.225-0.947c0.15-0.274,0.361-0.487,0.637-0.641c0.273-0.151,0.586-0.229,0.939-0.229
				C597.805,37.517,598.221,37.596,598.611,37.759z"/>
			<path fill="#3B8AB4" d="M602.639,39.552l-0.051,0.796c-0.211-0.146-0.465-0.217-0.764-0.217c-0.266,0-0.512,0.069-0.73,0.211
				c-0.217,0.144-0.385,0.343-0.506,0.597c-0.119,0.255-0.18,0.546-0.18,0.873c0,0.339,0.061,0.645,0.176,0.914
				c0.117,0.265,0.281,0.478,0.492,0.627c0.213,0.147,0.455,0.223,0.73,0.223c0.164,0,0.311-0.025,0.445-0.075
				c0.127-0.049,0.273-0.126,0.432-0.236l0.063,0.829c-0.162,0.085-0.322,0.15-0.484,0.189c-0.166,0.039-0.348,0.06-0.549,0.06
				c-0.416,0-0.785-0.104-1.113-0.312c-0.324-0.207-0.572-0.495-0.75-0.873c-0.178-0.374-0.266-0.808-0.266-1.308
				c0-0.472,0.09-0.9,0.271-1.281c0.182-0.382,0.434-0.682,0.756-0.895c0.32-0.219,0.68-0.323,1.074-0.323
				C602.016,39.351,602.332,39.416,602.639,39.552z"/>
			<path fill="#3B8AB4" d="M604.303,37.249v0.995h-0.852v-0.995H604.303z M604.287,39.412v4.872h-0.785v-4.872H604.287z"/>
			<path fill="#3B8AB4" d="M605.988,42.08c0.057,0.484,0.209,0.864,0.457,1.146c0.252,0.281,0.564,0.423,0.939,0.423
				c0.225,0,0.441-0.039,0.654-0.114c0.215-0.074,0.432-0.192,0.658-0.347v0.865c-0.256,0.13-0.486,0.223-0.691,0.276
				c-0.207,0.059-0.422,0.084-0.652,0.084c-0.322,0-0.617-0.063-0.885-0.185c-0.264-0.122-0.492-0.3-0.678-0.53
				s-0.328-0.509-0.43-0.835c-0.102-0.325-0.148-0.685-0.148-1.074c0-0.496,0.076-0.934,0.24-1.313
				c0.162-0.38,0.396-0.672,0.699-0.885c0.301-0.208,0.646-0.316,1.031-0.316c0.453,0,0.811,0.13,1.08,0.39
				c0.27,0.258,0.461,0.599,0.576,1.019c0.109,0.424,0.166,0.887,0.166,1.39h-3.018V42.08z M605.996,41.374h2.23
				c-0.027-0.266-0.08-0.498-0.158-0.703c-0.078-0.201-0.195-0.364-0.346-0.488c-0.158-0.124-0.346-0.188-0.566-0.188
				c-0.309,0-0.563,0.126-0.77,0.368C606.182,40.61,606.053,40.947,605.996,41.374z"/>
			<path fill="#3B8AB4" d="M610.668,39.412l0.035,0.774c0.318-0.571,0.799-0.855,1.441-0.855c0.35,0,0.631,0.075,0.844,0.225
				s0.369,0.347,0.469,0.591c0.1,0.243,0.166,0.511,0.197,0.807c0.027,0.295,0.047,0.651,0.047,1.071v2.26h-0.771V42.09
				c0-0.351-0.006-0.605-0.014-0.765c-0.012-0.162-0.027-0.306-0.053-0.426c-0.061-0.262-0.166-0.459-0.318-0.597
				c-0.152-0.134-0.344-0.203-0.57-0.203c-0.26,0-0.488,0.087-0.689,0.27c-0.201,0.176-0.342,0.418-0.42,0.729
				c-0.027,0.087-0.049,0.188-0.064,0.304c-0.016,0.12-0.023,0.244-0.025,0.384c-0.002,0.134-0.006,0.372-0.006,0.713v1.785h-0.777
				v-2.405c-0.004-0.274-0.01-0.528-0.012-0.761c-0.004-0.232-0.008-0.508-0.016-0.823c-0.006-0.315-0.016-0.609-0.027-0.883
				H610.668L610.668,39.412z"/>
			<path fill="#3B8AB4" d="M617.625,39.552l-0.049,0.796c-0.213-0.146-0.467-0.217-0.768-0.217c-0.266,0-0.51,0.069-0.729,0.211
				c-0.219,0.144-0.385,0.343-0.506,0.597c-0.121,0.255-0.178,0.546-0.178,0.873c0,0.339,0.057,0.645,0.176,0.914
				c0.115,0.265,0.279,0.478,0.49,0.627c0.213,0.147,0.455,0.223,0.729,0.223c0.166,0,0.314-0.025,0.445-0.075
				c0.131-0.049,0.273-0.126,0.428-0.236l0.066,0.829c-0.16,0.085-0.32,0.15-0.484,0.189s-0.346,0.06-0.547,0.06
				c-0.416,0-0.787-0.104-1.111-0.312c-0.328-0.207-0.576-0.495-0.754-0.873c-0.176-0.374-0.264-0.808-0.264-1.308
				c0-0.472,0.09-0.9,0.271-1.281c0.18-0.382,0.432-0.682,0.756-0.895c0.32-0.219,0.68-0.323,1.076-0.323
				C617,39.351,617.318,39.416,617.625,39.552z"/>
			<path fill="#3B8AB4" d="M619.01,42.08c0.057,0.484,0.211,0.864,0.461,1.146c0.248,0.281,0.563,0.423,0.939,0.423
				c0.223,0,0.439-0.039,0.654-0.114c0.211-0.074,0.428-0.192,0.656-0.347v0.865c-0.254,0.13-0.484,0.223-0.689,0.276
				c-0.209,0.059-0.426,0.084-0.656,0.084c-0.322,0-0.617-0.063-0.881-0.185c-0.266-0.122-0.49-0.3-0.678-0.53
				c-0.186-0.23-0.33-0.509-0.432-0.835c-0.1-0.325-0.15-0.685-0.15-1.074c0-0.496,0.082-0.934,0.242-1.313
				c0.162-0.38,0.395-0.672,0.697-0.885c0.303-0.208,0.646-0.316,1.031-0.316c0.453,0,0.814,0.13,1.082,0.39
				c0.268,0.258,0.463,0.599,0.574,1.019c0.113,0.424,0.168,0.887,0.168,1.39h-3.02V42.08z M619.018,41.374h2.234
				c-0.029-0.266-0.082-0.498-0.162-0.703c-0.076-0.201-0.193-0.364-0.346-0.488c-0.156-0.124-0.342-0.188-0.564-0.188
				c-0.307,0-0.563,0.126-0.768,0.368C619.209,40.61,619.074,40.947,619.018,41.374z"/>
			<path fill="#3B8AB4" d="M625.104,39.53l-0.059,0.755c-0.271-0.16-0.557-0.238-0.85-0.238c-0.217,0-0.385,0.055-0.514,0.167
				c-0.125,0.112-0.188,0.262-0.188,0.441c0,0.189,0.061,0.333,0.186,0.432c0.127,0.104,0.352,0.248,0.672,0.432
				c0.322,0.19,0.566,0.382,0.736,0.579c0.168,0.198,0.248,0.461,0.248,0.79c0,0.219-0.031,0.425-0.104,0.608
				c-0.074,0.184-0.176,0.339-0.314,0.471c-0.137,0.132-0.299,0.232-0.492,0.302c-0.191,0.073-0.398,0.106-0.617,0.106
				c-0.385,0-0.75-0.097-1.092-0.278v-0.81c0.201,0.112,0.381,0.193,0.533,0.242c0.154,0.052,0.305,0.077,0.455,0.077
				c0.152,0,0.289-0.029,0.414-0.083c0.121-0.057,0.221-0.132,0.291-0.227c0.068-0.099,0.102-0.208,0.102-0.325
				c0-0.188-0.068-0.33-0.199-0.437c-0.131-0.103-0.355-0.247-0.674-0.439c-0.316-0.191-0.561-0.387-0.725-0.588
				c-0.162-0.198-0.246-0.451-0.246-0.76c0-0.28,0.061-0.53,0.18-0.743c0.121-0.215,0.291-0.38,0.514-0.498
				c0.223-0.116,0.477-0.172,0.766-0.172C624.436,39.331,624.764,39.398,625.104,39.53z"/>
			<path fill="#3B8AB4" d="M629.596,37.637v6.647h-0.816v-6.647H629.596z"/>
			<path fill="#3B8AB4" d="M631.707,39.412l0.037,0.774c0.318-0.571,0.799-0.855,1.441-0.855c0.352,0,0.633,0.075,0.846,0.225
				c0.211,0.149,0.365,0.347,0.467,0.591c0.102,0.243,0.166,0.511,0.197,0.807c0.029,0.295,0.047,0.651,0.047,1.071v2.26h-0.771
				V42.09c0-0.351-0.006-0.605-0.016-0.765c-0.01-0.162-0.025-0.306-0.053-0.426c-0.057-0.262-0.164-0.459-0.316-0.597
				c-0.152-0.134-0.346-0.203-0.572-0.203c-0.258,0-0.484,0.087-0.689,0.27c-0.197,0.176-0.34,0.418-0.42,0.729
				c-0.027,0.087-0.047,0.188-0.061,0.304c-0.014,0.12-0.023,0.244-0.027,0.384c-0.002,0.134-0.004,0.372-0.004,0.713v1.785h-0.777
				v-2.405c-0.008-0.274-0.014-0.528-0.014-0.761c-0.002-0.232-0.01-0.508-0.016-0.823c-0.008-0.315-0.018-0.609-0.027-0.883
				H631.707L631.707,39.412z"/>
			<path fill="#3B8AB4" d="M638.209,37.15v0.755c-0.145-0.038-0.275-0.058-0.4-0.058c-0.313,0-0.512,0.116-0.602,0.349
				c-0.092,0.232-0.135,0.558-0.135,0.985v0.254h1.137v0.705h-1.137v4.146h-0.779v-4.146h-0.988v-0.705h0.988
				c0-0.447,0.031-0.847,0.094-1.193c0.064-0.344,0.195-0.625,0.396-0.846c0.199-0.219,0.484-0.329,0.863-0.329
				C637.822,37.067,638.01,37.097,638.209,37.15z"/>
			<path fill="#3B8AB4" d="M642.936,41.863c0,0.492-0.09,0.934-0.273,1.325c-0.186,0.387-0.439,0.688-0.771,0.904
				c-0.332,0.219-0.703,0.323-1.115,0.323c-0.41,0-0.773-0.11-1.098-0.327c-0.324-0.219-0.578-0.527-0.762-0.92
				c-0.184-0.396-0.277-0.829-0.277-1.306c0-0.377,0.053-0.722,0.158-1.033c0.104-0.316,0.254-0.589,0.449-0.817
				c0.193-0.234,0.42-0.415,0.688-0.542c0.262-0.124,0.547-0.188,0.85-0.188c0.309,0,0.596,0.063,0.859,0.187
				c0.266,0.122,0.496,0.3,0.689,0.532c0.197,0.232,0.346,0.513,0.451,0.829C642.885,41.149,642.936,41.492,642.936,41.863z
				 M642.111,41.885c0-0.269-0.035-0.519-0.1-0.755c-0.066-0.238-0.158-0.441-0.273-0.608c-0.119-0.168-0.258-0.298-0.418-0.389
				c-0.162-0.089-0.338-0.138-0.525-0.138c-0.383,0-0.701,0.176-0.953,0.528c-0.254,0.353-0.377,0.794-0.377,1.33
				c0,0.356,0.055,0.672,0.168,0.957c0.113,0.28,0.271,0.502,0.473,0.656c0.203,0.155,0.432,0.232,0.689,0.232
				c0.248,0,0.473-0.077,0.674-0.23c0.199-0.151,0.357-0.37,0.475-0.65C642.053,42.541,642.111,42.228,642.111,41.885z"/>
			<path fill="#3B8AB4" d="M643.869,39.412h0.719l0.039,0.867c0.123-0.304,0.291-0.536,0.492-0.692
				c0.201-0.159,0.438-0.236,0.707-0.236c0.135,0,0.277,0.019,0.42,0.062v0.829c-0.135-0.057-0.256-0.085-0.367-0.085
				c-0.273,0-0.498,0.093-0.676,0.276c-0.176,0.184-0.307,0.416-0.387,0.701c-0.082,0.284-0.121,0.579-0.121,0.891v0.351v1.911
				h-0.771v-2.969C643.924,40.837,643.906,40.202,643.869,39.412z"/>
			<path fill="#3B8AB4" d="M647.662,39.412l0.047,0.786c0.076-0.178,0.176-0.331,0.309-0.463c0.127-0.134,0.277-0.23,0.447-0.3
				c0.172-0.069,0.359-0.106,0.564-0.106c0.316,0,0.576,0.083,0.789,0.254c0.209,0.164,0.359,0.408,0.445,0.724
				c0.279-0.652,0.74-0.978,1.381-0.978c0.299,0,0.543,0.067,0.732,0.201c0.191,0.132,0.332,0.31,0.43,0.528
				c0.094,0.219,0.162,0.465,0.193,0.74c0.031,0.272,0.045,0.583,0.045,0.926v2.56h-0.777v-2.38c0-0.315-0.006-0.558-0.014-0.729
				c-0.01-0.174-0.027-0.312-0.051-0.408c-0.111-0.445-0.352-0.668-0.723-0.668c-0.111,0-0.221,0.021-0.322,0.067
				c-0.105,0.047-0.199,0.112-0.287,0.208c-0.084,0.087-0.164,0.195-0.227,0.319c-0.063,0.122-0.111,0.259-0.148,0.414
				c-0.031,0.114-0.053,0.248-0.063,0.402c-0.01,0.155-0.016,0.394-0.016,0.709v2.064h-0.785v-2.498
				c0-0.339-0.004-0.569-0.012-0.693s-0.023-0.236-0.049-0.337c-0.053-0.207-0.139-0.366-0.262-0.485
				c-0.121-0.114-0.266-0.171-0.432-0.171c-0.209,0-0.395,0.071-0.564,0.217c-0.168,0.146-0.299,0.347-0.395,0.601
				c-0.094,0.259-0.143,0.548-0.143,0.869v0.349v2.151h-0.779v-2.74c0-0.867-0.018-1.576-0.053-2.132h0.717V39.412z"/>
			<path fill="#3B8AB4" d="M654.414,39.778c0.227-0.155,0.455-0.27,0.68-0.341s0.465-0.106,0.723-0.106
				c0.393,0,0.725,0.085,0.99,0.262c0.268,0.17,0.451,0.42,0.553,0.737c0.088,0.266,0.133,0.717,0.133,1.352v0.951
				c0,0.365,0.002,0.687,0.01,0.962c0.006,0.271,0.016,0.504,0.029,0.691h-0.709c-0.004-0.116-0.01-0.24-0.01-0.38
				c0-0.17,0.006-0.323,0.01-0.457c-0.164,0.315-0.355,0.546-0.58,0.689c-0.223,0.144-0.498,0.219-0.826,0.219
				c-0.291,0-0.547-0.063-0.77-0.182c-0.221-0.118-0.391-0.291-0.508-0.512c-0.121-0.223-0.18-0.481-0.18-0.771
				c0-0.259,0.049-0.483,0.145-0.682c0.096-0.195,0.238-0.364,0.424-0.501c0.188-0.138,0.414-0.24,0.686-0.311
				c0.273-0.067,0.584-0.101,0.939-0.101c0.213,0,0.408,0.004,0.584,0.02c-0.006-0.418-0.092-0.728-0.264-0.922
				c-0.17-0.197-0.43-0.296-0.781-0.296c-0.229,0-0.439,0.037-0.627,0.112c-0.191,0.071-0.393,0.191-0.609,0.356L654.414,39.778z
				 M656.754,41.981c-0.172-0.02-0.316-0.026-0.424-0.026c-1.033,0-1.545,0.308-1.545,0.925c0,0.147,0.031,0.279,0.1,0.394
				c0.064,0.116,0.162,0.203,0.281,0.265c0.125,0.068,0.266,0.1,0.42,0.1c0.287,0,0.518-0.072,0.689-0.219
				c0.174-0.147,0.299-0.345,0.369-0.589C656.719,42.582,656.754,42.303,656.754,41.981z"/>
			<path fill="#3B8AB4" d="M659.838,38.007v1.425h1.111v0.707h-1.111v1.911c0,0.434,0.018,0.755,0.049,0.956
				c0.025,0.177,0.096,0.313,0.209,0.415c0.113,0.103,0.256,0.154,0.432,0.154c0.164,0,0.332-0.052,0.508-0.149v0.781
				c-0.246,0.091-0.486,0.135-0.723,0.135c-0.361,0-0.639-0.083-0.818-0.257c-0.186-0.173-0.307-0.396-0.357-0.674
				c-0.051-0.281-0.076-0.644-0.076-1.087v-2.188h-0.963v-0.705h0.963v-1.117L659.838,38.007z"/>
			<path fill="#3B8AB4" d="M662.66,37.249v0.995h-0.852v-0.995H662.66z M662.643,39.412v4.872h-0.785v-4.872H662.643z"/>
			<path fill="#3B8AB4" d="M667.861,41.863c0,0.492-0.094,0.934-0.277,1.325c-0.18,0.387-0.438,0.688-0.77,0.904
				c-0.33,0.219-0.701,0.323-1.117,0.323c-0.408,0-0.771-0.11-1.096-0.327c-0.322-0.219-0.576-0.527-0.762-0.92
				c-0.186-0.396-0.275-0.829-0.275-1.306c0-0.377,0.053-0.722,0.158-1.033c0.104-0.316,0.254-0.589,0.447-0.817
				c0.193-0.234,0.422-0.415,0.688-0.542c0.266-0.124,0.547-0.188,0.852-0.188c0.309,0,0.596,0.063,0.857,0.187
				c0.268,0.122,0.498,0.3,0.691,0.532c0.197,0.232,0.348,0.513,0.447,0.829C667.809,41.149,667.861,41.492,667.861,41.863z
				 M667.035,41.885c0-0.269-0.031-0.519-0.098-0.755c-0.066-0.238-0.156-0.441-0.277-0.608c-0.117-0.168-0.258-0.298-0.416-0.389
				c-0.16-0.089-0.336-0.138-0.527-0.138c-0.381,0-0.699,0.176-0.949,0.528c-0.252,0.353-0.381,0.794-0.381,1.33
				c0,0.356,0.059,0.672,0.17,0.957c0.115,0.28,0.273,0.502,0.475,0.656c0.201,0.155,0.43,0.232,0.688,0.232
				c0.248,0,0.475-0.077,0.672-0.23c0.203-0.151,0.361-0.37,0.475-0.65C666.98,42.541,667.035,42.228,667.035,41.885z"/>
			<path fill="#3B8AB4" d="M669.514,39.412l0.035,0.774c0.32-0.571,0.801-0.855,1.441-0.855c0.352,0,0.631,0.075,0.846,0.225
				c0.213,0.149,0.367,0.347,0.469,0.591c0.1,0.243,0.164,0.511,0.195,0.807c0.029,0.295,0.047,0.651,0.047,1.071v2.26h-0.771V42.09
				c0-0.351-0.004-0.605-0.016-0.765c-0.01-0.162-0.023-0.306-0.049-0.426c-0.061-0.262-0.168-0.459-0.32-0.597
				c-0.15-0.134-0.342-0.203-0.57-0.203c-0.258,0-0.486,0.087-0.688,0.27c-0.199,0.176-0.342,0.418-0.422,0.729
				c-0.025,0.087-0.047,0.188-0.063,0.304c-0.016,0.12-0.023,0.244-0.025,0.384c-0.004,0.134-0.006,0.372-0.006,0.713v1.785h-0.779
				v-2.405c-0.006-0.274-0.01-0.528-0.014-0.761c-0.002-0.232-0.006-0.508-0.01-0.823c-0.008-0.315-0.02-0.609-0.029-0.883H669.514
				L669.514,39.412z"/>
		</g>
	</g>
	<g>
		<path fill="#3B8AB4" d="M447.23,45.614h-2.371l-0.521,1.944h-1.707l2.512-8.706h1.947l2.422,8.706h-1.82 M446.104,40.523h-0.021
			l-0.898,3.619h1.699L446.104,40.523z"/>
		<path fill="#3B8AB4" d="M456.406,43.585c0-0.749-0.27-1.022-0.65-1.022c-0.506,0-0.699,0.424-0.699,0.91v4.117h-1.711v-4.005
			c0-0.825-0.314-1.022-0.598-1.022c-0.557,0-0.754,0.56-0.754,1.387v3.641h-1.707v-5.142c0-0.621-0.016-1.022-0.047-1.355h1.557
			c0.023,0.285,0.047,0.646,0.047,1.085h0.018c0.262-0.713,0.693-1.189,1.594-1.189c0.809,0,1.223,0.438,1.463,1.086
			c0.246-0.609,0.646-1.086,1.543-1.086c1.24,0,1.652,1.052,1.652,2.347v4.255h-1.707"/>
		<path fill="#3B8AB4" d="M464.104,44.859h-3.316c0,0.772,0.432,1.481,1.396,1.481c0.584,0,1.168-0.248,1.588-0.51l0.031,1.485
			c-0.547,0.238-1.197,0.374-1.783,0.374c-1.977,0-2.854-1.387-2.854-3.369c0-1.747,0.883-3.327,2.496-3.327
			c0.508,0,2.441,0,2.441,3.389 M462.549,43.784c0-0.82-0.182-1.596-0.887-1.596c-0.875,0-0.875,1.247-0.875,1.596H462.549z"/>
		<path fill="#3B8AB4" d="M465.111,42.45c0-0.623-0.01-1.022-0.041-1.357h1.559c0.01,0.386,0.029,0.786,0.039,1.17h0.023
			c0.346-0.693,0.584-1.271,1.564-1.271h0.25v1.82c-0.182-0.053-0.334-0.075-0.568-0.075c-1,0-1.117,0.999-1.117,1.945v2.907h-1.709
			"/>
		<path fill="#3B8AB4" d="M469.371,38.237h1.711v1.742h-1.711 M469.371,41.093h1.711v6.497h-1.711V41.093z"/>
		<path fill="#3B8AB4" d="M476.307,47.413c-0.5,0.151-1.004,0.277-1.547,0.277c-2.178,0-2.664-2.098-2.664-3.282
			c0-1.997,0.998-3.416,2.793-3.416c0.563,0,0.863,0.163,1.363,0.31l-0.086,1.487c-0.314-0.14-0.641-0.276-0.996-0.276
			c-1.301,0-1.301,1.647-1.301,1.896c0,1.371,0.74,1.811,1.389,1.811c0.355,0,0.682-0.149,0.994-0.287"/>
		<path fill="#3B8AB4" d="M477.516,41.402c0.443-0.16,1.207-0.414,1.816-0.414c1.979,0,2.436,0.953,2.436,2.399v2.368
			c0,0.96,0.012,1.394,0.043,1.834h-1.557l-0.047-0.9h-0.021c-0.074,0.398-0.73,0.999-1.545,0.999c-1.049,0-1.74-0.786-1.74-1.972
			c0-2.171,2.199-2.182,2.789-2.182h0.518c0-1.247-0.797-1.247-1.045-1.247c-0.434,0-0.9,0.114-1.57,0.573 M480.207,44.46
			c-0.678,0-1.748,0.047-1.748,1.133c0,0.849,0.594,0.849,0.736,0.849c0.152,0,1.012-0.025,1.012-1.609V44.46z"/>
		<path fill="#3B8AB4" d="M486.287,42.726c-0.455-0.213-0.877-0.351-1.373-0.351c-0.445,0-0.637,0.252-0.637,0.477
			c0,0.398,0.248,0.536,1.178,0.933c0.584,0.252,1.182,0.676,1.182,1.896c0,1.449-0.943,2.011-2.08,2.011
			c-0.496,0-1.254-0.064-1.846-0.313l0.041-1.521c0.408,0.288,0.932,0.451,1.408,0.451c0.797,0,0.852-0.327,0.852-0.614
			c0-0.286-0.443-0.41-1.182-0.763c-0.592-0.284-1.178-0.832-1.178-1.99c0-0.701,0.438-1.948,2.111-1.948
			c0.703,0,1.287,0.149,1.568,0.262"/>
		<line fill="#3B8AB4" x1="522.645" y1="34.591" x2="442.77" y2="34.591"/>
		<rect x="442.77" y="34.183" fill="#3B8AB4" width="79.875" height="0.816"/>
		<path fill="#3B8AB4" d="M394.658,43.585h0.996c0.574,0,0.959,0.321,0.959,1.052c0,0.519-0.266,0.865-0.621,0.933v0.018
			c0.117,0.023,0.254,0.093,0.352,0.461l0.42,1.519h-0.627l-0.314-1.294c-0.078-0.312-0.229-0.416-0.445-0.416h-0.135v1.71h-0.584
			 M395.48,45.318c0.316,0,0.525-0.198,0.525-0.604c0-0.455-0.193-0.567-0.525-0.567h-0.238v1.172H395.48z"/>
		<polyline fill="#3B8AB4" points="397.008,43.585 398.693,43.585 398.693,44.17 397.596,44.17 397.596,45.229 398.635,45.229 
			398.635,45.81 397.596,45.81 397.596,46.985 398.74,46.985 398.74,47.566 397.008,47.566 		"/>
		<path fill="#3B8AB4" d="M400.352,45.338h1.035v2.081c-0.164,0.108-0.449,0.205-0.865,0.205c-1.027,0-1.576-0.867-1.576-2.047
			c0-1.179,0.549-2.048,1.576-2.048c0.367,0,0.654,0.104,0.777,0.17l-0.029,0.658c-0.191-0.145-0.445-0.246-0.74-0.246
			c-0.625,0-0.961,0.64-0.961,1.466c0,0.895,0.328,1.464,0.93,1.464c0.137,0,0.262-0.03,0.34-0.071v-1.074h-0.486"/>
		<rect x="401.824" y="43.585" fill="#3B8AB4" width="0.586" height="3.981"/>
		<path fill="#3B8AB4" d="M404.014,43.529c0.666,0,1.279,0.615,1.279,2.048c0,1.432-0.613,2.047-1.279,2.047
			c-0.664,0-1.275-0.615-1.275-2.047C402.738,44.145,403.35,43.529,404.014,43.529 M404.014,47.064c0.375,0,0.67-0.393,0.67-1.487
			c0-1.096-0.295-1.488-0.67-1.488c-0.371,0-0.666,0.393-0.666,1.488C403.348,46.672,403.643,47.064,404.014,47.064"/>
		<polyline fill="#3B8AB4" points="405.607,43.585 406.307,43.585 407.375,46.71 407.383,46.71 407.383,43.585 407.916,43.585 
			407.916,47.566 407.211,47.566 406.152,44.466 406.141,44.466 406.141,47.566 405.607,47.566 		"/>
		<path fill="#3B8AB4" d="M409.965,46.607h-1.1l-0.23,0.959h-0.586l1.076-3.981h0.641l1.031,3.981h-0.605 M409.844,46.048
			l-0.404-1.856h-0.012l-0.438,1.856H409.844z"/>
		<polyline fill="#3B8AB4" points="410.908,43.585 411.498,43.585 411.498,46.985 412.551,46.985 412.551,47.566 410.908,47.566 		
			"/>
		<path fill="#3B8AB4" d="M414.857,43.529c0.664,0,1.279,0.615,1.279,2.048c0,1.432-0.615,2.047-1.279,2.047
			s-1.277-0.615-1.277-2.047C413.58,44.145,414.193,43.529,414.857,43.529 M414.857,47.064c0.373,0,0.67-0.393,0.67-1.487
			c0-1.096-0.297-1.488-0.67-1.488c-0.369,0-0.67,0.393-0.67,1.488C414.188,46.672,414.488,47.064,414.857,47.064"/>
		<polyline fill="#3B8AB4" points="416.455,43.585 418.08,43.585 418.08,44.17 417.047,44.17 417.047,45.252 418.033,45.252 
			418.033,45.833 417.047,45.833 417.047,47.566 416.455,47.566 		"/>
		<polyline fill="#3B8AB4" points="418.352,43.585 419.975,43.585 419.975,44.17 418.939,44.17 418.939,45.252 419.93,45.252 
			419.93,45.833 418.939,45.833 418.939,47.566 418.352,47.566 		"/>
		<rect x="420.252" y="43.585" fill="#3B8AB4" width="0.592" height="3.981"/>
		<path fill="#3B8AB4" d="M423.336,47.481c-0.119,0.081-0.404,0.145-0.695,0.145c-0.973,0-1.473-0.887-1.473-2.049
			c0-1.163,0.5-2.048,1.457-2.048c0.324,0,0.592,0.108,0.711,0.166l-0.031,0.656c-0.125-0.075-0.311-0.217-0.609-0.217
			c-0.486,0-0.902,0.411-0.902,1.442c0,1.03,0.416,1.443,0.902,1.443c0.285,0,0.473-0.088,0.609-0.208"/>
		<polyline fill="#3B8AB4" points="423.619,43.585 425.305,43.585 425.305,44.17 424.209,44.17 424.209,45.229 425.248,45.229 
			425.248,45.81 424.209,45.81 424.209,46.985 425.352,46.985 425.352,47.566 423.619,47.566 		"/>
		<polyline fill="#3B8AB4" points="426.652,43.585 428.273,43.585 428.273,44.17 427.24,44.17 427.24,45.252 428.23,45.252 
			428.23,45.833 427.24,45.833 427.24,47.566 426.652,47.566 		"/>
		<path fill="#3B8AB4" d="M429.695,43.529c0.664,0,1.279,0.615,1.279,2.048c0,1.432-0.615,2.047-1.279,2.047
			s-1.277-0.615-1.277-2.047C428.418,44.145,429.031,43.529,429.695,43.529 M429.695,47.064c0.371,0,0.67-0.393,0.67-1.487
			c0-1.096-0.299-1.488-0.67-1.488c-0.369,0-0.67,0.393-0.67,1.488C429.025,46.672,429.326,47.064,429.695,47.064"/>
		<path fill="#3B8AB4" d="M431.266,43.585h1.002c0.57,0,0.955,0.321,0.955,1.052c0,0.519-0.262,0.865-0.615,0.933v0.018
			c0.111,0.023,0.246,0.093,0.348,0.461l0.422,1.519h-0.627l-0.318-1.294c-0.076-0.312-0.227-0.416-0.447-0.416h-0.129v1.71h-0.59
			 M432.094,45.318c0.313,0,0.521-0.198,0.521-0.604c0-0.455-0.191-0.567-0.521-0.567h-0.238v1.172H432.094z"/>
		<polyline fill="#3B8AB4" points="434.803,44.168 434.086,44.168 434.086,43.585 436.104,43.585 436.104,44.168 435.391,44.168 
			435.391,47.566 434.803,47.566 		"/>
		<polyline fill="#3B8AB4" points="436.309,43.585 436.896,43.585 436.896,45.206 437.846,45.206 437.846,43.585 438.436,43.585 
			438.436,47.566 437.846,47.566 437.846,45.81 436.896,45.81 436.896,47.566 436.309,47.566 		"/>
		<polyline fill="#3B8AB4" points="438.887,43.585 440.572,43.585 440.572,44.17 439.475,44.17 439.475,45.229 440.512,45.229 
			440.512,45.81 439.475,45.81 439.475,46.985 440.615,46.985 440.615,47.566 438.887,47.566 		"/>
		<path fill="#3B8AB4" d="M430.689,7.85c0.85,0.999,2.328,1.585,3.197,2.589c-0.617-2.961-2.932-5.38-5.668-5.957
			C429.551,5.475,429.838,6.849,430.689,7.85 M397.824,15.355c1.883-4.053,4.695-3.194,5.885-7.053
			c-0.67,1.185-3.744,1.684-5.166,4.718c0.725-1.803,0.361-4.563,1.594-6.052C396.453,9.652,398.023,13.992,397.824,15.355
			 M401.236,25.072c0.338,1.577-0.652,3.854,0.922,6.031c-1.635-1.811-5.096-2.271-6.512-5.028c1.77,6.73,6.361,5.344,8.441,6.808
			C402.381,30.463,403.773,28.848,401.236,25.072 M400.705,29.299c-1.02-3.764,0.791-5.059-0.584-8.67
			c-0.146,2.033-1.516,3.026-0.592,6.739c-1.627-3.149-4.158-4.318-4.887-6.481C394.693,26.793,399.494,27.668,400.705,29.299
			 M408.076,35.604c-1.412-1.931-0.445-3.024-4.418-6.535c0.844,1.28-0.025,2.895,2.654,5.4c-2.623-1.527-6.236-0.871-7.977-2.914
			C401.324,37.213,406.586,34.9,408.076,35.604 M427.291,34.469c2.676-2.506,1.811-4.12,2.65-5.4
			c-3.969,3.511-3.008,4.604-4.422,6.535c1.494-0.703,6.752,1.609,9.746-4.049C433.523,33.598,429.906,32.941,427.291,34.469
			 M431.443,31.104c1.572-2.177,0.582-4.454,0.922-6.031c-2.543,3.775-1.145,5.391-2.854,7.811c2.074-1.464,6.674-0.077,8.441-6.808
			C436.537,28.832,433.076,29.293,431.443,31.104 M425.1,35.873c-1.551-0.411-3.15-0.616-4.342-0.644
			c-1.482-0.036-2.809,0.24-3.959,0.664c-1.146-0.424-2.473-0.7-3.959-0.664c-1.189,0.027-2.787,0.232-4.34,0.644
			c-2.385,0.627-4.453,1.115-6.252,0.213c1.727,1.516,3.738,2.052,6.646,1.744c2.42-0.258,4.371-1.452,6.654-1.44
			c0.027,0,0.063,0.006,0.088,0.006c-2.402,1.2-3.76,2.893-3.76,2.893l1.102,0.144c0,0,1.156-2.301,3.82-2.898
			c2.668,0.598,3.824,2.898,3.824,2.898l1.1-0.144c0,0-1.355-1.692-3.76-2.893c0.029,0,0.055-0.006,0.086-0.006
			c2.285-0.012,4.236,1.183,6.658,1.44c2.908,0.308,4.92-0.229,6.643-1.744C429.551,36.988,427.486,36.5,425.1,35.873
			 M400.285,16.55c-0.986,1.868-2.516,2.297-2.354,6.154c-0.824-3.427-2.797-4.703-2.771-6.891
			c-1.377,5.711,2.295,6.391,3.236,8.783C398.256,21.167,400.473,20.474,400.285,16.55 M401.662,12.138
			c-0.342,0.476-0.586,0.678-1.502,1.419c-1.246,1.02-2.242,2.349-2.658,4.299c0.094-2.094-1.215-5.105-0.346-7.298
			c-3.373,4.702,0.191,7.521,0.316,9.226C398.35,16.503,400.354,16.478,401.662,12.138 M436.1,17.856
			c-0.42-1.95-1.414-3.279-2.66-4.299c-0.916-0.742-1.16-0.944-1.502-1.419c1.309,4.34,3.314,4.366,4.186,7.646
			c0.129-1.705,3.689-4.524,0.32-9.226C437.314,12.75,436.004,15.762,436.1,17.856 M438.957,20.887
			c-0.732,2.163-3.258,3.332-4.887,6.481c0.924-3.713-0.447-4.707-0.59-6.739c-1.375,3.611,0.432,4.906-0.586,8.67
			C434.105,27.668,438.908,26.793,438.957,20.887 M433.314,16.55c-0.186,3.924,2.027,4.617,1.889,8.046
			c0.943-2.392,4.609-3.072,3.238-8.783c0.025,2.188-1.949,3.463-2.773,6.891C435.828,18.847,434.303,18.417,433.314,16.55
			 M402.91,7.85c0.85-1.001,1.137-2.375,2.467-3.368c-2.732,0.577-5.041,2.996-5.666,5.957C400.584,9.435,402.061,8.848,402.91,7.85
			 M429.891,8.302c1.189,3.859,4.002,3,5.881,7.053c-0.195-1.363,1.371-5.703-2.307-8.387c1.23,1.489,0.863,4.25,1.594,6.052
			C433.631,9.985,430.563,9.487,429.891,8.302 M420.346,10.495c-0.709-0.289-1.459-0.496-2.238-0.605
			c0,0.164-0.006,0.331-0.012,0.497c0.723,0.104,1.416,0.295,2.066,0.562C420.25,10.811,420.311,10.66,420.346,10.495
			 M419.775,5.716l0.152-0.134l-0.285-0.119l-0.754-0.016l-0.195,0.135l-0.443-0.037l-0.004,0.108
			c0.281,0.017,0.557,0.042,0.775,0.079l0.361-0.031L419.775,5.716z M418.328,21.736c0-0.127-0.17-0.249-0.418-0.368h-0.047
			c0,0.104-0.01,0.605-0.016,0.854C418.158,22.083,418.328,21.935,418.328,21.736 M409.623,12.295
			c0.018-0.104,0.035-0.184,0.064-0.274c-0.096,0.023-0.205,0.033-0.307,0.031L409.623,12.295z M416.816,34.151
			c8.455,0,15.332-6.801,15.332-15.157c0-7.837-6.053-14.309-13.777-15.08c-0.008,0.029-0.014,0.057-0.02,0.085
			c-0.033,0.148-0.057,0.283-0.08,0.399c3.459,0.333,6.574,1.849,8.93,4.13l-1.695,1.674l0.064-0.295l-0.221-0.096l-0.305-0.018
			l0.066-0.195l-0.205-0.683l-0.422-0.458l-1.322-0.69l-0.113,0.119l-0.24,0.071c0.455,0.663,0.701,1.423,0.701,2.197
			c0,0.101-0.002,0.199-0.008,0.297l0.652,0.813l-0.305,0.071l0.199,0.303l-0.578,0.571l-0.23-0.439
			c-0.109,0.308-0.256,0.589-0.438,0.854c0.043,0.042,0.09,0.077,0.129,0.121l-1.779,1.759c-0.107-0.101-0.223-0.199-0.336-0.292
			c-0.17,0.078-0.344,0.15-0.521,0.217c0.051,0.04,0.102,0.075,0.148,0.114l-0.086,0.093l-0.207,0.114l-0.082,0.206l-0.127-0.129
			l-0.377,0.124l0.102,0.166l0.262-0.069l0.17,0.012l0.008-0.09l0.135-0.065l0.039-0.078l0.232-0.062l0.18-0.008
			c0.039,0.028,0.076,0.059,0.109,0.096l-0.705,0.698l-0.053-0.078l-0.736,0.124l-0.166,0.161l-0.166,0.021l0.461-0.435l-0.16-0.082
			l-0.432,0.568l0.127-0.016l-0.012,0.207l0.16,0.062l0.029,0.223l-0.256-0.051l-0.268,0.048l-0.648-0.328
			c0,0-0.035,1.721-0.053,2.586c1.527,0.507,3.152,1.242,3.152,3.172c0,0.848-0.371,1.531-1.102,2.038h0.006
			c-0.008,0.008-0.021,0.015-0.031,0.023l-0.004-0.003c-0.018,0.011-0.033,0.021-0.049,0.034c-0.621,0.406-1.416,0.618-2.105,0.835
			c-0.006,0-0.021,1.35-0.021,1.35c1.1,0.537,2.434,1.323,2.307,3.565c-0.016,0.552-0.232,0.707-0.418,0.754v0.004
			c-0.641,0.156-1.307,0.259-1.986,0.306c0,0.176,0,0.343-0.006,0.498c2.955-0.202,5.623-1.434,7.646-3.337l1.779,1.759
			c-2.67,2.534-6.291,4.097-10.275,4.097c-3.967,0-7.566-1.543-10.234-4.055l1.783-1.762c2.002,1.864,4.631,3.08,7.535,3.292
			c-0.002-0.153-0.002-0.318-0.008-0.494c-2.766-0.211-5.27-1.371-7.174-3.146l0.475-0.473l0.652,0.075l0.346-0.369l0.91,0.03
			l0.135-0.31l-0.031-0.135c1.32,0.993,2.912,1.644,4.641,1.821c-0.002-0.191-0.006-0.36-0.01-0.497
			c-1.916-0.21-3.641-1.028-4.982-2.255l1.779-1.759c0.432,0.383,0.918,0.703,1.443,0.957c0.043-0.167,0.102-0.323,0.184-0.462
			c-0.465-0.225-0.893-0.509-1.271-0.843l1.787-1.766c0.277,0.225,0.605,0.403,0.951,0.525c-0.006-0.173-0.006-0.357-0.012-0.531
			c-0.209-0.09-0.408-0.206-0.588-0.344l0.504-0.5c-0.178-0.051-0.355-0.108-0.535-0.167l-0.336,0.333
			c-0.17-0.189-0.314-0.398-0.426-0.625c-0.309-0.134-0.605-0.29-0.883-0.468c-1.098-0.714-1.656-1.72-1.656-2.993
			c0-0.969,0.281-1.707,0.725-2.275l-1.775-1.759c1.279-1.208,2.924-2.041,4.752-2.312c-0.004-0.171-0.008-0.337-0.008-0.497
			c-1.963,0.279-3.729,1.167-5.098,2.462l-0.303-0.295c-0.064,0.119-0.145,0.269-0.238,0.456l0.189,0.188
			c-1.529,1.611-2.48,3.763-2.516,6.132H405c0.039-3.054,1.27-5.833,3.258-7.895l0.801,0.792c0.037,0,0.074,0,0.113-0.003
			c0.141-0.012,0.301-0.054,0.455-0.131l-1.018-1.004c0.539-0.514,1.127-0.98,1.752-1.387c0.053-0.166,0.1-0.314,0.125-0.367
			c0.033-0.062,0.189-0.27,0.383-0.509c-0.951,0.521-1.832,1.167-2.611,1.911l-1.781-1.759c2.334-2.247,5.41-3.742,8.83-4.081
			c-0.01-0.062-0.02-0.108-0.02-0.108c-0.021-0.117-0.049-0.246-0.072-0.377c-7.707,0.791-13.73,7.25-13.73,15.074
			C401.484,27.351,408.363,34.151,416.816,34.151 M420.123,23.681v-0.015l0.006,0.012C420.129,23.678,420.127,23.681,420.123,23.681
			 M427.549,8.881c2.508,2.598,4.059,6.102,4.1,9.958h-2.52c-0.023-1.909-0.496-3.715-1.313-5.318l0.023-0.044l0.172,0.09
			l0.039-0.132l-0.451-0.778l-0.533-0.73l-0.627-0.517c-0.209-0.266-0.439-0.522-0.672-0.771L427.549,8.881z M424.34,12.073
			l0.609,0.026l0.141,0.17l-0.072,0.253l0.836,0.517l0.17-0.02l1.074,1.215l0.441-0.15c0.68,1.448,1.072,3.06,1.094,4.754h-2.525
			c-0.01-0.652-0.088-1.283-0.23-1.894l0.113-0.155l0.154-0.778l-0.113-0.842l-0.305-0.964l-0.705-1.017l0.17,0.091l0.09-0.086
			l-0.563-0.378l-0.043,0.125l0.568,0.796l0.318,0.654l0.23,0.647l0.066,0.438l0.121,0.729l-0.213,0.019c0,0-0.244-0.45-0.316-0.634
			l0.111-0.167l-0.213-0.303v-0.305l-0.158-0.192l-0.189,0.023c-0.066-0.127-0.137-0.251-0.213-0.373l0.133,0.071l0.041-0.037
			l-0.074-0.155l0.164-0.093l-0.078-0.093l-0.24,0.093l0.088-0.377l-0.143-0.083l-0.131,0.303c-0.271-0.407-0.582-0.794-0.914-1.151
			L424.34,12.073z M423.838,17.911l0.449-0.244l0.461-0.072l0.104-0.22l0.256-0.156l0.098-0.212l0.082-0.367
			c0.035,0.129,0.072,0.264,0.104,0.393l-0.246,0.72l-0.01,0.245l0.354-0.467c0.072,0.424,0.117,0.863,0.127,1.309h-2.211
			l-0.047-0.188l0.252-0.203l0.053-0.121l0.111-0.083l0.299-0.031l0.029-0.131L423.838,17.911z M420.813,16.195l0.223-0.048
			l-0.006-0.054l-0.229-0.15l0.078-0.469l0.268-0.266c0.17,0.191,0.324,0.388,0.467,0.6l-0.092,0.29l-0.246-0.176l-0.189,0.052
			l0.092,0.173h0.094L421.17,16.4l-0.072-0.101L420.813,16.195z M421.775,24.467l-0.545-0.15l-0.16,0.059l-0.311-0.235l-0.291-0.101
			c0.145-0.101,0.281-0.209,0.416-0.323l0.451,0.315l0.34,0.178l0.17,0.168L421.775,24.467z M421.5,14.861l1.779-1.764
			c0.418,0.444,0.785,0.939,1.107,1.464l-0.225,0.062l0.012,0.393l0.668,0.415c0.164,0.362,0.305,0.732,0.418,1.117l-0.117,0.166
			l-0.238,0.152l-0.063,0.365l-0.166,0.093l-0.137,0.161l-0.143-0.052l-0.242-0.01l0.143-0.191l0.1-0.497l0.168-0.101l-0.482-0.455
			l-0.357,0.121l-0.084,0.334l-0.229,0.246l-0.232-0.196l-0.08-0.203l0.127-0.082l0.078,0.134l0.107-0.039l-0.045-0.226l-0.156-0.01
			l-0.01,0.093l-0.102,0.021l-0.555-0.641l-0.191-0.14l0.078-0.078l0.164-0.059l-0.156-0.06c0,0-0.195,0.045-0.215,0.045
			l0.109,0.136l-0.283-0.005C421.887,15.321,421.701,15.084,421.5,14.861 M422.406,24.234l-0.242-0.237l0.184-0.238l0.238-0.466
			l-0.094-0.134l0.156-0.347l-0.018-0.311l-0.094-0.325l-0.221-0.078l-0.078,0.186l-0.133-0.036c0.186-0.3,0.387-0.58,0.527-0.911
			l0.229-0.096l0.123-0.167l0.063,0.069l0.154-0.184l-0.125-0.152l0.111-0.029l0.207,0.08l0.393,0.013l0.234-0.124l0.613-0.163
			l-0.115-0.202l-0.039-0.245l0.33,0.145l0.123-0.072l-0.061-0.253l-0.404,0.15l-0.447-0.088l-0.34-0.688h1.926
			c-0.086,2.194-0.994,4.179-2.432,5.665l-0.264-0.258l0.113-0.353l-0.203-0.768L422.406,24.234z M422.746,29.098l0.238-0.506
			l-0.092-0.223l0.348-0.302v-0.185l-0.299-0.184l0.246-0.486l0.371-0.474l-0.371-0.395h-0.275l-0.174-0.279
			c0.148-0.118,0.297-0.242,0.438-0.372l1.783,1.758C424.287,28.083,423.549,28.635,422.746,29.098 M424.971,26.77l0.195-0.219
			l-0.188-0.961l-0.127-0.052l0.078-0.163l-0.424-0.132l-0.078,0.347l-0.041,0.435l-0.092,0.079l-0.768-0.76
			c1.529-1.575,2.494-3.685,2.576-6.013h2.523c-0.086,3.016-1.334,5.747-3.314,7.774L424.971,26.77z M425.66,27.451
			c2.074-2.115,3.379-4.967,3.465-8.121h2.52c-0.09,3.838-1.672,7.313-4.201,9.885L425.66,27.451z M410.498,25.042
			c-0.184-0.188-0.359-0.384-0.523-0.585l0.078-0.631l-0.264-0.605l-0.066-0.941l-0.297-0.577l0.063-0.359l-0.361-0.678
			l-0.314-0.156l0.129-0.362l-0.131-0.29l0.131-0.325h0.34l0.121-0.202h0.588l0.092,0.171l-0.107,0.594l-0.072,0.101l0.221,0.477
			l-0.143,0.08l-0.105-0.126l-0.039,0.046l0.098,0.282l0.174,0.331l0.08-0.008l0.047-0.297l-0.082-0.109l-0.014-0.198l-0.02-0.412
			l0.119-0.732l-0.117-0.199h0.422c0.084,1.528,0.73,2.91,1.734,3.95L410.498,25.042z M408.832,20.174l-0.238,0.367h-0.408
			l-0.035-0.025c-0.066-0.386-0.111-0.782-0.125-1.185h0.756l-0.18,0.6L408.832,20.174z M409.658,18.462l0.047-0.497l0.301-0.171
			l0.531,0.094l0.082,0.095c-0.051,0.283-0.076,0.566-0.084,0.856h-0.602L409.658,18.462z M412.217,20.324l0.127-0.062l0.328,0.243
			l-0.141,0.114l0.371,0.245l-0.025-0.26l0.195-0.323l0.207,0.217l0.213,0.3l-0.383,0.085l0.176,0.339l0.264-0.137l-0.031-0.111
			l0.195-0.132l0.115-0.543c0.145,0.322,0.342,0.619,0.582,0.875l-1.783,1.759c-0.848-0.879-1.418-2.028-1.561-3.306l0.365,0.386
			l0.346-0.008L412.217,20.324z M410.391,13.056l1.781,1.759c-0.371,0.404-0.688,0.856-0.945,1.345l-0.125-0.005l-0.248,0.078
			l-0.088-0.008L410.5,16.47l0.338-0.057l0.301-0.072c-0.018,0.036-0.037,0.072-0.053,0.114l-0.264,0.16h-0.125l-0.393,0.295
			l-0.377-0.031l-0.551,1.009l0.111,0.202l-0.301,0.326l-0.043,0.424h-1.125C408.055,16.604,408.951,14.577,410.391,13.056
			 M408.088,26.34l0.568,0.325l0.115,0.078l-0.406,0.406c-0.193-0.193-0.377-0.399-0.557-0.606L408.088,26.34z M407.527,19.331
			c0.008,0.243,0.027,0.481,0.059,0.722l-0.313,0.07l-0.063,0.31l-0.641,0.805l0.014,1.109l-0.66,0.218l-0.361,0.005
			c-0.332-1.024-0.527-2.11-0.559-3.238H407.527z M405.039,22.553l-0.15-0.031l-0.139-0.155l-0.709-0.06l0.219,0.297l-0.654-0.124
			l0.172-0.155l-0.16-0.156l-0.471,0.203l-0.17,0.31l0.066,0.709l0.543,1.289l0.262,0.4l0.146,0.055l-0.408-0.771l-0.09-0.393
			l0.09-0.099l-0.057-0.214l0.248,0.033l0.379,0.569l0.096,0.036l-0.01-0.413l0.154,0.088l0.033,0.228l0.398,0.104l0.168-0.119
			l0.059,0.042l-0.008,0.3l0.174,0.217l0.217,0.046l0.467,0.781l0.281,0.077l0.09-0.364c0.492,0.804,1.078,1.546,1.74,2.216
			l-1.783,1.76c-2.553-2.575-4.16-6.068-4.246-9.927h2.52C404.535,20.451,404.721,21.529,405.039,22.553 M406.125,8.837l1.779,1.761
			c-2.074,2.149-3.361,5.049-3.402,8.241h-2.518C402.023,14.962,403.594,11.442,406.125,8.837 M424.363,7.929l-0.152-0.243
			l-0.33-0.163l-0.256,0.194l0.326,0.171l0.373,0.263L424.363,7.929z M422.838,14.954l0.008,0.197l0.439-0.129l0.131-0.264
			l-0.299-0.393l0.156-0.238l0.408,0.29l0.076-0.062l-0.08-0.056l-0.092-0.171l0.166-0.098l-0.162-0.21l-0.383,0.192l-0.135,0.228
			l-0.076,0.209l0.168,0.277l-0.061,0.133L422.838,14.954z M404.621,26.127l0.029-0.113l-0.225-0.486l-0.27-0.098L404.621,26.127z
			 M414.92,16.768c0,0.421,0.26,0.71,0.727,0.97c0,0-0.002-0.073-0.008-0.189l-0.293-0.292l0.154-0.28l0.129-0.036
			c-0.006-0.486-0.018-1.029-0.018-1.107l-0.023,0.003C415.154,16.071,414.92,16.359,414.92,16.768"/>
		<path fill="#3B8AB4" d="M417.734,27.56c0.791,0.399,1.521,0.941,1.824,1.979c0.137-1.714-0.838-2.459-1.805-2.961
			C417.76,26.582,417.734,27.56,417.734,27.56"/>
		<path fill="#3B8AB4" d="M422.988,10.157c0-1.56-1.143-3.288-3.945-3.897c-0.207-0.045-0.523-0.079-0.855-0.099
			c-0.002,0.235-0.018,0.774-0.018,0.774c-0.004,0.168-0.016,0.794-0.021,0.928c0.26,0.021,0.449,0.051,0.537,0.075
			c1.629,0.383,2.213,1.306,2.213,2.22c0,1.479-1.281,2.035-2.852,2.457c-0.17,0.049-0.344,0.091-0.523,0.134
			c-0.475,0.119-0.969,0.23-1.449,0.36c-0.174,0.046-0.348,0.095-0.518,0.144c-1.744,0.528-3.242,1.355-3.242,3.487
			c0,2.108,1.707,2.896,3.379,3.404c-0.012-0.605-0.023-1.216-0.033-1.826c-0.74-0.342-1.258-0.791-1.258-1.549
			c0-0.738,0.471-1.185,1.195-1.508c0.16-0.072,0.332-0.137,0.516-0.197c0.416-0.142,0.881-0.258,1.373-0.377
			c0.17-0.041,0.34-0.082,0.516-0.124C420.357,13.998,422.988,13.271,422.988,10.157"/>
		<path fill="#3B8AB4" d="M414.549,25.031c0.002,0.851,0.635,1.313,1.268,1.665c-0.002-0.142-0.027-1.461-0.027-1.484
			c0.016-0.264,0.273-0.419,0.48-0.517c0.307-0.142,0.615-0.246,1.01-0.38c0.186-0.065,0.352-0.127,0.529-0.181
			c1.275-0.38,2.746-0.863,2.746-2.395c0-1.539-1.264-2.165-2.645-2.638c-0.01,0.489-0.025,1.203-0.031,1.697
			c0.582,0.228,0.971,0.501,0.971,0.941c0,0.546-0.594,0.865-1.018,1.024c-0.174,0.065-0.439,0.153-0.516,0.176
			c-0.338,0.105-0.703,0.225-1.043,0.349c-0.18,0.067-0.352,0.14-0.516,0.222C415.158,23.813,414.541,24.255,414.549,25.031"/>
		<path fill="#3B8AB4" d="M415.406,6.403c-0.842,0.241-1.346,0.557-1.533,0.619c-0.553,0.181-1.326,0.209-2.125,1.073
			c-0.141,0.153-0.49,0.585-0.734,0.936c-0.244,0.345-0.254,0.897-0.43,1.196c-0.258,0.429-0.195,0.678-0.195,0.678l0.004,0.01
			c-0.004,0.052-0.057,0.282-0.295,0.543c-0.264,0.29-0.619,0.455-1.033,0.388c0.361,0.178,0.863-0.072,0.863-0.072
			s-0.092,0.274-0.189,0.716c0.41-0.916,0.785-1.249,0.898-1.345c0.18,0.043,0.543,0.023,1.217-0.359
			c0.766-0.435,1.916-1.143,2.238-1.589c0.352-0.486,0.834-0.801,1.361-1.008C415.438,7.513,415.422,6.911,415.406,6.403
			 M412.07,9.391l-0.395,0.085l0.582-0.893l0.557,0.019L412.07,9.391z"/>
		<path fill="#3B8AB4" d="M416.986,24.923c-0.072,0.025-0.266,0.108-0.385,0.149c-0.125,0.047-0.289,0.108-0.289,0.155
			c0,0.014,0.117,6.605,0.117,6.751c0,1.357,0.703,1.365,0.703,0c0-0.097,0.141-7.148,0.141-7.148S417.107,24.881,416.986,24.923"/>
		<path fill="#3B8AB4" d="M416.266,22.75c0.217-0.076,0.432-0.14,0.635-0.201c0.152-0.048,0.295-0.091,0.422-0.135
			c0.01-0.415,0.133-6.151,0.15-7.195c-0.52,0.125-0.975,0.248-1.348,0.382C416.141,16.387,416.248,22.124,416.266,22.75"/>
		<path fill="#3B8AB4" d="M416.844,0.771c-1.965,0-1.129,2.881-0.973,3.82c0.008,0.043,0.16,6.51,0.189,7.991
			c0.299-0.077,0.598-0.147,0.881-0.22c0.207-0.048,0.404-0.098,0.596-0.144c0.027-1.428,0.174-7.599,0.18-7.638
			C417.834,3.574,418.863,0.771,416.844,0.771"/>
		<polyline fill="#3B8AB4" points="448.957,6.228 448.932,6.228 447.266,15.211 444.982,15.211 442.848,4.249 444.662,4.249 
			446.143,12.699 446.174,12.699 447.762,4.249 450.121,4.249 451.699,12.699 451.729,12.699 453.271,4.249 455.025,4.249 
			452.848,15.211 450.535,15.211 		"/>
		<path fill="#3B8AB4" d="M458.25,6.999c1.586,0,3.424,0.864,3.424,4.159c0,3.393-1.838,4.179-3.424,4.179
			c-1.588,0-3.432-0.786-3.432-4.179C454.818,7.862,456.662,6.999,458.25,6.999 M458.25,13.953c1.211,0,1.484-1.445,1.484-2.796
			c0-1.35-0.273-2.778-1.484-2.778s-1.498,1.428-1.498,2.778C456.752,12.508,457.039,13.953,458.25,13.953"/>
		<path fill="#3B8AB4" d="M462.836,8.457c0-0.502-0.021-0.972-0.061-1.334h1.689c0.016,0.486,0.063,0.988,0.063,1.477h0.035
			c0.227-0.628,0.813-1.601,1.979-1.601c0.119,0,0.211,0.031,0.32,0.047v1.82c-0.166-0.046-0.334-0.077-0.533-0.077
			c-0.771,0-1.619,0.487-1.619,1.994v4.431h-1.873"/>
		<rect x="468.043" y="3.432" fill="#3B8AB4" width="1.873" height="11.779"/>
		<path fill="#3B8AB4" d="M477.75,3.429v10.397c0,0.585,0.016,1.086,0.059,1.385h-1.756c-0.031-0.236-0.059-0.707-0.059-1.258
			h-0.045c-0.305,0.691-0.863,1.383-2.074,1.383c-1.939,0-2.736-1.918-2.736-4.164c0-2.638,1.014-4.174,2.691-4.174
			c1.119,0,1.74,0.657,2.012,1.288h0.031V3.429 M474.387,13.904c1.107,0,1.486-1.241,1.486-2.762c0-1.569-0.426-2.716-1.457-2.716
			c-1.041,0-1.404,1.051-1.404,2.669C473.012,12.963,473.301,13.904,474.387,13.904"/>
		<polyline fill="#3B8AB4" points="483.93,4.249 485.865,4.249 485.865,8.708 488.998,8.708 488.998,4.249 490.936,4.249 
			490.936,15.211 488.998,15.211 488.998,10.374 485.865,10.374 485.865,15.211 483.93,15.211 		"/>
		<path fill="#3B8AB4" d="M498.121,14.817c-0.393,0.173-1.211,0.518-2.328,0.518c-2.516,0-3.602-1.871-3.602-4.051
			c0-2.418,1.223-4.288,3.209-4.288c1.674,0,3.113,1.021,3.113,4.317v0.377h-4.512c0,1.384,0.535,2.213,1.986,2.213
			c1.148,0,1.693-0.359,2.041-0.625 M496.697,10.47c0-1.433-0.455-2.155-1.297-2.155c-0.986,0-1.398,1.084-1.398,2.155H496.697z"/>
		<path fill="#3B8AB4" d="M500.195,7.593c0.531-0.251,1.271-0.595,2.467-0.595c2.418,0,2.979,1.223,2.979,3.249v3.533
			c0,0.582,0.063,1.117,0.109,1.431h-1.695c-0.094-0.314-0.107-0.707-0.107-1.1h-0.031c-0.469,0.658-1.059,1.226-2.18,1.226
			c-1.211,0-2.328-0.863-2.328-2.371c0-2.202,1.725-2.75,4.104-2.75h0.371v-0.3c0-0.799-0.371-1.537-1.447-1.537
			c-0.939,0-1.771,0.471-2.135,0.786 M503.883,11.253h-0.166c-1.604,0-2.555,0.345-2.555,1.521c0,0.743,0.467,1.241,1.195,1.241
			c1.121,0,1.525-0.861,1.525-2.307V11.253z"/>
		<rect x="507.488" y="3.432" fill="#3B8AB4" width="1.875" height="11.779"/>
		<path fill="#3B8AB4" d="M511.711,5.457l1.871-0.598v2.264h1.557v1.428h-1.557v4.195c0,0.864,0.305,1.112,0.848,1.112
			c0.334,0,0.576-0.093,0.709-0.17v1.381c-0.283,0.143-0.693,0.268-1.252,0.268c-1.391,0-2.176-0.661-2.176-2.358V8.551h-1.242
			V7.123h1.242"/>
		<path fill="#3B8AB4" d="M516.111,3.432h1.873v4.725h0.049c0.334-0.501,0.771-1.158,1.936-1.158c1.768,0,2.299,1.365,2.299,2.998
			v5.215h-1.877v-4.853c0-1.241-0.301-1.759-1.074-1.759c-0.986,0-1.332,0.862-1.332,1.901v4.71h-1.873"/>
		<path fill="#3B8AB4" d="M446.977,18.125c2.197,0,4.207,1.697,4.207,5.639s-2.01,5.638-4.207,5.638
			c-2.193,0-4.207-1.696-4.207-5.638S444.783,18.125,446.977,18.125 M446.977,27.864c1.227,0,2.213-1.085,2.213-4.101
			c0-3.013-0.986-4.096-2.213-4.096c-1.225,0-2.209,1.083-2.209,4.096C444.768,26.779,445.752,27.864,446.977,27.864"/>
		<path fill="#3B8AB4" d="M452.447,22.492c0-0.503-0.014-0.973-0.061-1.335h1.693c0.016,0.489,0.063,0.991,0.063,1.478h0.031
			c0.229-0.628,0.816-1.602,1.984-1.602c0.119,0,0.207,0.031,0.316,0.047v1.824c-0.168-0.049-0.334-0.078-0.531-0.078
			c-0.773,0-1.621,0.484-1.621,1.992v4.43h-1.875"/>
		<path fill="#3B8AB4" d="M457.637,30.503c0.441,0.252,1.318,0.689,2.299,0.689c1.77,0,2.057-1.269,2.057-2.542v-0.77h-0.027
			c-0.303,0.626-0.832,1.365-2.057,1.365c-1.092,0-2.727-0.755-2.727-4.021c0-2.229,0.771-4.192,2.814-4.192
			c1.137,0,1.666,0.678,2.059,1.382h0.063c0-0.425,0.043-0.831,0.059-1.255h1.695c-0.031,0.424-0.063,0.846-0.063,1.271v5.969
			c0,2.526-0.74,4.335-3.6,4.335c-1.238,0-2.225-0.331-2.68-0.505 M460.557,27.817c1.18,0,1.643-0.881,1.643-2.717
			c0-1.696-0.615-2.609-1.508-2.592c-0.984,0.014-1.363,0.955-1.363,2.607C459.328,27.018,459.918,27.817,460.557,27.817"/>
		<path fill="#3B8AB4" d="M465.84,21.63c0.529-0.251,1.271-0.598,2.463-0.598c2.424,0,2.986,1.226,2.986,3.251v3.534
			c0,0.581,0.061,1.113,0.105,1.429h-1.697c-0.09-0.315-0.105-0.708-0.105-1.102h-0.029c-0.469,0.662-1.063,1.226-2.18,1.226
			c-1.209,0-2.332-0.863-2.332-2.368c0-2.201,1.727-2.752,4.104-2.752h0.377v-0.294c0-0.802-0.377-1.542-1.449-1.542
			c-0.943,0-1.775,0.471-2.137,0.786 M469.531,25.289h-0.168c-1.602,0-2.557,0.345-2.557,1.523c0,0.737,0.469,1.239,1.193,1.239
			c1.123,0,1.531-0.863,1.531-2.308V25.289z"/>
		<path fill="#3B8AB4" d="M473.178,22.492c0-0.503-0.016-0.973-0.061-1.335h1.756c0.016,0.412,0.063,0.833,0.063,1.242h0.043h-0.016
			c0.271-0.487,0.805-1.366,2.074-1.366c1.77,0,2.295,1.366,2.295,3v5.213h-1.871v-4.854c0-1.238-0.303-1.758-1.078-1.758
			c-0.98,0-1.332,0.867-1.332,1.9v4.712h-1.873"/>
		<path fill="#3B8AB4" d="M481.027,17.722h1.936v1.913h-1.936 M481.057,21.156h1.875v8.09h-1.875V21.156z"/>
		<polyline fill="#3B8AB4" points="484.68,27.565 488.008,22.634 484.785,22.634 484.785,21.156 489.885,21.156 489.885,22.825 
			486.615,27.767 489.988,27.767 489.988,29.246 484.68,29.246 		"/>
		<path fill="#3B8AB4" d="M491.768,21.63c0.529-0.251,1.268-0.598,2.463-0.598c2.42,0,2.984,1.226,2.984,3.251v3.534
			c0,0.581,0.059,1.113,0.104,1.429h-1.691c-0.096-0.315-0.109-0.708-0.109-1.102h-0.029c-0.465,0.662-1.063,1.226-2.18,1.226
			c-1.209,0-2.328-0.863-2.328-2.368c0-2.201,1.725-2.752,4.098-2.752h0.379v-0.294c0-0.802-0.379-1.542-1.449-1.542
			c-0.941,0-1.773,0.471-2.135,0.786 M495.457,25.289h-0.166c-1.604,0-2.555,0.345-2.555,1.523c0,0.737,0.465,1.239,1.191,1.239
			c1.119,0,1.529-0.863,1.529-2.308V25.289z"/>
		<path fill="#3B8AB4" d="M499.367,19.496l1.877-0.601v2.264h1.559v1.428h-1.559v4.192c0,0.866,0.307,1.115,0.85,1.115
			c0.334,0,0.574-0.091,0.709-0.172v1.383c-0.285,0.141-0.693,0.265-1.252,0.265c-1.393,0-2.184-0.656-2.184-2.353v-4.43h-1.238
			v-1.428h1.238"/>
		<path fill="#3B8AB4" d="M504.094,17.722h1.938v1.913h-1.938 M504.332,21.156h1.877v8.09h-1.877V21.156z"/>
		<path fill="#3B8AB4" d="M511.08,21.032c1.588,0,3.422,0.864,3.422,4.164c0,3.388-1.834,4.174-3.422,4.174
			s-3.434-0.786-3.434-4.174C507.646,21.896,509.492,21.032,511.08,21.032 M511.08,27.989c1.211,0,1.486-1.442,1.486-2.793
			c0-1.352-0.275-2.782-1.486-2.782c-1.207,0-1.496,1.43-1.496,2.782C509.584,26.547,509.873,27.989,511.08,27.989"/>
		<path fill="#3B8AB4" d="M516.139,22.492c0-0.503-0.021-0.973-0.066-1.335h1.756c0.016,0.412,0.063,0.833,0.063,1.242h0.045h-0.016
			c0.271-0.487,0.803-1.366,2.074-1.366c1.766,0,2.301,1.366,2.301,3v5.213h-1.873v-4.854c0-1.238-0.309-1.758-1.082-1.758
			c-0.982,0-1.328,0.867-1.328,1.9v4.712h-1.873"/>
		<path fill="#3B8AB4" d="M297.049,3.155h3.138c2.263,0,3.441,1.345,3.441,3.563c0,2.219-1.178,3.58-3.441,3.58h-1.128v4.594h-2.01
			 M299.813,8.653c1.254,0,1.805-0.656,1.805-1.935c0-1.278-0.551-1.916-1.805-1.916h-0.754v3.851H299.813z"/>
		<path fill="#3B8AB4" d="M304.695,6.734c0.549-0.269,1.32-0.636,2.56-0.636c2.508,0,3.09,1.309,3.09,3.479v3.784
			c0,0.622,0.064,1.195,0.11,1.531h-1.76c-0.092-0.336-0.106-0.76-0.106-1.179h-0.035c-0.486,0.709-1.095,1.314-2.258,1.314
			c-1.255,0-2.419-0.927-2.419-2.54c0-2.354,1.792-2.944,4.256-2.944h0.39v-0.32c0-0.856-0.39-1.645-1.503-1.645
			c-0.976,0-1.838,0.504-2.216,0.84 M308.523,10.653h-0.17c-1.663,0-2.653,0.37-2.653,1.632c0,0.789,0.484,1.329,1.24,1.329
			c1.162,0,1.583-0.926,1.583-2.473V10.653z"/>
		<path fill="#3B8AB4" d="M312.309,7.661c0-0.539-0.018-1.043-0.064-1.428h1.821c0.017,0.437,0.063,0.89,0.063,1.329h0.047h-0.015
			c0.281-0.522,0.832-1.464,2.15-1.464c1.836,0,2.387,1.464,2.387,3.212v5.582h-1.948V9.696c0-1.33-0.314-1.883-1.114-1.883
			c-1.02,0-1.382,0.924-1.382,2.033v5.046h-1.945"/>
		<path fill="#3B8AB4" d="M329.766,12.068H326l-0.786,2.824h-2.01l3.675-11.737h2.196l3.531,11.737h-2.071 M329.343,10.417
			l-1.382-5.481h-0.033l-1.506,5.481H329.343z"/>
		<path fill="#3B8AB4" d="M333.692,7.646c0-0.624-0.031-1.095-0.065-1.413h1.948c0.019,0.452,0.063,0.908,0.063,1.36h0.03
			c0.3-0.672,0.927-1.495,2.04-1.495c1.365,0,1.807,0.908,2.043,1.379c0.39-0.608,0.974-1.379,2.168-1.379
			c1.757,0,2.322,1.345,2.322,3.445v5.349h-1.948V9.427c0-1.076-0.312-1.614-1.033-1.614c-0.866,0-1.319,0.875-1.319,1.833v5.246
			h-1.946V9.427c0-1.076-0.315-1.614-1.037-1.614c-0.863,0-1.32,0.875-1.32,1.833v5.246h-1.946"/>
		<path fill="#3B8AB4" d="M352.043,14.471c-0.408,0.183-1.256,0.556-2.418,0.556c-2.603,0-3.736-2.002-3.736-4.34
			c0-2.592,1.271-4.588,3.331-4.588c1.741,0,3.232,1.091,3.232,4.625v0.401h-4.68c0,1.479,0.551,2.371,2.058,2.371
			c1.195,0,1.759-0.387,2.121-0.672 M350.568,9.813c0-1.531-0.47-2.302-1.349-2.302c-1.021,0-1.448,1.158-1.448,2.302H350.568z"/>
		<path fill="#3B8AB4" d="M354.18,7.661c0-0.539-0.018-1.043-0.066-1.428h1.76c0.02,0.523,0.066,1.058,0.066,1.58h0.029
			c0.234-0.672,0.85-1.715,2.057-1.715c0.123,0,0.219,0.031,0.328,0.05v1.953c-0.17-0.052-0.346-0.088-0.549-0.088
			c-0.801,0-1.68,0.522-1.68,2.136v4.744h-1.945"/>
		<path fill="#3B8AB4" d="M359.959,2.55h2.006v2.051h-2.006 M359.99,6.233h1.943v8.659h-1.943V6.233z"/>
		<path fill="#3B8AB4" d="M369.531,14.669c-0.459,0.187-1.133,0.354-1.918,0.354c-2.668,0-3.799-1.999-3.799-4.457
			c0-2.473,1.197-4.472,3.91-4.472c0.613,0,1.336,0.202,1.695,0.354l-0.107,1.645c-0.346-0.181-0.832-0.418-1.369-0.418
			c-1.473,0-2.117,1.058-2.117,2.907c0,1.617,0.723,2.861,2.215,2.861c0.473,0,1.113-0.238,1.379-0.419"/>
		<path fill="#3B8AB4" d="M371.277,6.734c0.545-0.269,1.316-0.636,2.553-0.636c2.516,0,3.098,1.309,3.098,3.479v3.784
			c0,0.622,0.059,1.195,0.105,1.531h-1.756c-0.096-0.336-0.109-0.76-0.109-1.179h-0.031c-0.486,0.709-1.102,1.314-2.258,1.314
			c-1.26,0-2.42-0.927-2.42-2.54c0-2.354,1.789-2.944,4.252-2.944h0.395v-0.32c0-0.856-0.395-1.645-1.508-1.645
			c-0.973,0-1.836,0.504-2.213,0.84 M375.105,10.653h-0.174c-1.664,0-2.652,0.37-2.652,1.632c0,0.789,0.486,1.329,1.242,1.329
			c1.162,0,1.584-0.926,1.584-2.473V10.653z"/>
		<path fill="#3B8AB4" d="M378.889,7.661c0-0.539-0.02-1.043-0.063-1.428h1.822c0.016,0.437,0.064,0.89,0.064,1.329h0.047h-0.016
			c0.279-0.522,0.828-1.464,2.148-1.464c1.836,0,2.387,1.464,2.387,3.212v5.582h-1.947V9.696c0-1.33-0.314-1.883-1.115-1.883
			c-1.018,0-1.381,0.924-1.381,2.033v5.046h-1.947"/>
		<polyline fill="#3B8AB4" points="297.142,17.903 299.153,17.903 299.153,22.677 302.402,22.677 302.402,17.903 304.413,17.903 
			304.413,29.638 302.402,29.638 302.402,24.46 299.153,24.46 299.153,29.638 297.142,29.638 		"/>
		<path fill="#3B8AB4" d="M312.544,29.216c-0.411,0.186-1.259,0.556-2.419,0.556c-2.604,0-3.738-1.999-3.738-4.337
			c0-2.592,1.275-4.591,3.332-4.591c1.743,0,3.232,1.094,3.232,4.625v0.405h-4.677c0,1.477,0.55,2.369,2.056,2.369
			c1.195,0,1.758-0.387,2.121-0.672 M311.067,24.561c0-1.532-0.471-2.302-1.349-2.302c-1.021,0-1.445,1.159-1.445,2.302H311.067z"/>
		<path fill="#3B8AB4" d="M315.007,21.485c0.549-0.269,1.32-0.639,2.56-0.639c2.51,0,3.092,1.311,3.092,3.48v3.78
			c0,0.622,0.062,1.197,0.108,1.532h-1.759c-0.093-0.335-0.107-0.757-0.107-1.18h-0.033c-0.485,0.709-1.097,1.315-2.259,1.315
			c-1.256,0-2.42-0.928-2.42-2.541c0-2.354,1.794-2.943,4.254-2.943h0.394v-0.321c0-0.854-0.394-1.645-1.504-1.645
			c-0.975,0-1.837,0.505-2.216,0.841 M318.837,25.403h-0.171c-1.664,0-2.655,0.367-2.655,1.63c0,0.792,0.488,1.328,1.241,1.328
			c1.163,0,1.585-0.926,1.585-2.472V25.403z"/>
		<rect x="322.811" y="17.029" fill="#3B8AB4" width="1.947" height="12.609"/>
		<path fill="#3B8AB4" d="M327.582,19.196l1.946-0.639v2.424h1.618v1.528h-1.618v4.487c0,0.926,0.317,1.195,0.881,1.195
			c0.345,0,0.595-0.099,0.737-0.185v1.479c-0.297,0.151-0.721,0.289-1.301,0.289c-1.447,0-2.263-0.709-2.263-2.525v-4.741h-1.29
			v-1.528h1.29"/>
		<path fill="#3B8AB4" d="M332.545,17.029h1.947v5.059h0.045c0.348-0.536,0.802-1.241,2.011-1.241c1.836,0,2.388,1.464,2.388,3.209
			v5.583h-1.947v-5.195c0-1.328-0.314-1.886-1.115-1.886c-1.018,0-1.381,0.927-1.381,2.038v5.043h-1.947"/>
		<path fill="#3B8AB4" d="M301.069,32.482c2.273,0,4.361,1.817,4.361,6.037c0,4.218-2.088,6.035-4.361,6.035
			c-2.278,0-4.366-1.817-4.366-6.035C296.703,34.3,298.791,32.482,301.069,32.482 M301.069,42.909c1.268,0,2.29-1.16,2.29-4.39
			c0-3.231-1.021-4.39-2.29-4.39c-1.274,0-2.295,1.158-2.295,4.39C298.774,41.749,299.794,42.909,301.069,42.909"/>
		<path fill="#3B8AB4" d="M307.253,37.156c0-0.538-0.02-1.042-0.066-1.427h1.76c0.017,0.521,0.064,1.059,0.064,1.58h0.029
			c0.235-0.674,0.85-1.716,2.06-1.716c0.121,0,0.217,0.031,0.325,0.053v1.949c-0.169-0.052-0.344-0.085-0.547-0.085
			c-0.799,0-1.681,0.519-1.681,2.134v4.744h-1.944"/>
		<path fill="#3B8AB4" d="M312.971,45.732c0.453,0.27,1.365,0.739,2.386,0.739c1.836,0,2.134-1.358,2.134-2.722v-0.825h-0.032
			c-0.314,0.672-0.862,1.464-2.136,1.464c-1.126,0-2.827-0.808-2.827-4.305c0-2.39,0.802-4.49,2.923-4.49
			c1.178,0,1.726,0.725,2.135,1.479h0.064c0-0.455,0.046-0.889,0.062-1.344h1.761c-0.035,0.455-0.066,0.904-0.066,1.359v6.388
			c0,2.709-0.77,4.644-3.734,4.644c-1.29,0-2.31-0.354-2.78-0.538 M315.78,42.857c1.227,0,1.711-0.941,1.711-2.909
			c0-1.814-0.644-2.792-1.57-2.776c-1.02,0.018-1.412,1.028-1.412,2.792C314.509,42.001,315.122,42.857,315.78,42.857"/>
		<path fill="#3B8AB4" d="M321.7,36.232c0.548-0.269,1.319-0.639,2.558-0.639c2.511,0,3.093,1.311,3.093,3.481v3.782
			c0,0.623,0.061,1.194,0.107,1.531h-1.757c-0.094-0.337-0.109-0.759-0.109-1.182h-0.032c-0.486,0.709-1.097,1.315-2.261,1.315
			c-1.255,0-2.418-0.926-2.418-2.541c0-2.353,1.793-2.943,4.255-2.943h0.393v-0.319c0-0.855-0.393-1.646-1.505-1.646
			c-0.974,0-1.836,0.505-2.216,0.838 M325.529,40.148h-0.17c-1.663,0-2.656,0.369-2.656,1.632c0,0.79,0.488,1.33,1.243,1.33
			c1.163,0,1.583-0.925,1.583-2.473V40.148z"/>
		<path fill="#3B8AB4" d="M329.313,37.156c0-0.538-0.017-1.042-0.064-1.427h1.823c0.016,0.436,0.062,0.889,0.062,1.328h0.049h-0.019
			c0.282-0.522,0.833-1.464,2.15-1.464c1.837,0,2.388,1.464,2.388,3.212v5.583h-1.949v-5.195c0-1.328-0.313-1.884-1.111-1.884
			c-1.021,0-1.382,0.924-1.382,2.035v5.044h-1.947"/>
		<path fill="#3B8AB4" d="M337.775,32.044h2.01v2.055h-2.01 M337.806,35.729h1.948v8.659h-1.948V35.729z"/>
		<polyline fill="#3B8AB4" points="341.418,42.588 344.87,37.306 341.528,37.306 341.528,35.729 346.817,35.729 346.817,37.509 
			343.428,42.805 346.927,42.805 346.927,44.389 341.418,44.389 		"/>
		<path fill="#3B8AB4" d="M348.795,36.232c0.549-0.269,1.32-0.639,2.56-0.639c2.514,0,3.092,1.311,3.092,3.481v3.782
			c0,0.623,0.061,1.194,0.111,1.531h-1.76c-0.096-0.337-0.109-0.759-0.109-1.182h-0.031c-0.488,0.709-1.1,1.315-2.261,1.315
			c-1.255,0-2.418-0.926-2.418-2.541c0-2.353,1.791-2.943,4.255-2.943h0.393v-0.319c0-0.855-0.393-1.646-1.508-1.646
			c-0.975,0-1.834,0.505-2.216,0.838 M352.627,40.148h-0.17c-1.667,0-2.657,0.369-2.657,1.632c0,0.79,0.486,1.33,1.241,1.33
			c1.162,0,1.586-0.925,1.586-2.473V40.148z"/>
		<path fill="#3B8AB4" d="M357.127,33.944l1.949-0.638v2.423h1.619v1.527h-1.619v4.49c0,0.924,0.314,1.195,0.879,1.195
			c0.35,0,0.6-0.101,0.74-0.187v1.479c-0.297,0.153-0.721,0.287-1.305,0.287c-1.445,0-2.264-0.709-2.264-2.525v-4.74h-1.281v-1.527
			h1.281"/>
		<path fill="#3B8AB4" d="M362.25,32.044h2.01v2.055h-2.01 M362.281,35.729h1.947v8.659h-1.947V35.729z"/>
		<path fill="#3B8AB4" d="M369.674,35.594c1.648,0,3.547,0.926,3.547,4.457c0,3.629-1.898,4.472-3.547,4.472
			c-1.646,0-3.564-0.843-3.564-4.472C366.109,36.52,368.027,35.594,369.674,35.594 M369.674,43.043c1.256,0,1.537-1.547,1.537-2.992
			c0-1.446-0.281-2.978-1.537-2.978s-1.555,1.531-1.555,2.978C368.119,41.496,368.418,43.043,369.674,43.043"/>
		<path fill="#3B8AB4" d="M374.916,37.156c0-0.538-0.014-1.042-0.061-1.427h1.822c0.016,0.436,0.061,0.889,0.061,1.328h0.053h-0.02
			c0.279-0.522,0.832-1.464,2.15-1.464c1.838,0,2.385,1.464,2.385,3.212v5.583h-1.945v-5.195c0-1.328-0.316-1.884-1.113-1.884
			c-1.021,0-1.385,0.924-1.385,2.035v5.044h-1.947"/>
		<path fill="#3B8AB4" d="M269.283,47.603c-13.08,0-23.719-10.506-23.719-23.415c0-12.911,10.639-23.417,23.719-23.417
			c13.078,0,23.72,10.506,23.72,23.417C293.003,37.097,282.361,47.603,269.283,47.603 M269.283,1.843
			c-12.482,0-22.633,10.022-22.633,22.344c0,12.316,10.151,22.343,22.633,22.343c12.481,0,22.634-10.026,22.634-22.343
			C291.917,11.866,281.764,1.843,269.283,1.843"/>
		<path fill="#3B8AB4" d="M269.283,41.165c-9.737,0-17.661-7.616-17.661-16.979c0-9.363,7.923-16.98,17.661-16.98
			c9.739,0,17.659,7.618,17.659,16.98C286.942,33.549,279.021,41.165,269.283,41.165 M269.283,8.401
			c-9.071,0-16.449,7.081-16.449,15.787c0,8.701,7.378,15.78,16.449,15.78c9.072,0,16.449-7.079,16.449-15.782
			C285.732,15.482,278.354,8.401,269.283,8.401"/>
		<polyline fill="#3B8AB4" points="250.547,16.038 250.857,17.184 251.99,17.184 251.167,17.828 251.474,18.832 250.498,18.037 
			249.545,18.903 249.929,17.828 248.951,17.189 250.085,17.212 		"/>
		<path fill="#3B8AB4" d="M251.592,19.005l-1.09-0.885l-0.916,0.828l-0.098-0.062l0.368-1.03l-1.111-0.729l1.3,0.026l0.512-1.304
			l0.347,1.278h1.261l-0.928,0.724 M249.158,17.253l0.843,0.551l-0.319,0.895l0.813-0.74l0.866,0.699l-0.265-0.851l0.721-0.564
			h-1.006l-0.274-1.011l-0.409,1.04L249.158,17.253z"/>
		<polyline fill="#3B8AB4" points="286.728,32.282 287.038,33.429 288.167,33.429 287.345,34.073 287.657,35.079 286.675,34.285 
			285.723,35.148 286.109,34.073 285.127,33.431 286.264,33.458 		"/>
		<path fill="#3B8AB4" d="M287.773,35.253l-1.094-0.891l-0.917,0.831l-0.099-0.064l0.374-1.03l-1.114-0.729l1.299,0.028l0.515-1.307
			l0.347,1.278h1.258l-0.927,0.728 M285.336,33.499l0.847,0.554l-0.324,0.889l0.815-0.736l0.865,0.701l-0.264-0.854l0.72-0.563
			h-1.004l-0.275-1.015l-0.413,1.045L285.336,33.499z"/>
		<polyline fill="#3B8AB4" points="251.759,32.027 252.069,33.173 253.203,33.173 252.378,33.816 252.687,34.823 251.71,34.029 
			250.755,34.891 251.142,33.816 250.163,33.179 251.297,33.204 		"/>
		<path fill="#3B8AB4" d="M252.802,34.993l-1.091-0.885l-0.916,0.829l-0.097-0.066l0.37-1.031l-1.112-0.727l1.3,0.029l0.513-1.31
			l0.347,1.28h1.261l-0.929,0.727 M250.371,33.241l0.843,0.552l-0.32,0.893l0.813-0.735l0.864,0.702l-0.262-0.855l0.72-0.562h-1.006
			l-0.276-1.015l-0.409,1.044L250.371,33.241z"/>
		<polyline fill="#3B8AB4" points="288.131,15.213 288.544,16.361 289.575,16.361 288.75,17.003 289.06,18.009 288.131,17.158 
			287.13,18.082 287.514,17.003 286.535,16.367 287.668,16.39 		"/>
		<path fill="#3B8AB4" d="M289.183,18.203l-1.053-0.961l-0.961,0.884l-0.098-0.062l0.371-1.034l-1.112-0.724l1.3,0.025l0.502-1.288
			l0.453,1.262h1.167l-0.931,0.722 M286.744,16.429l0.845,0.551l-0.324,0.893l0.865-0.794l0.81,0.738l-0.259-0.833l0.721-0.56
			h-0.898l-0.374-1.039l-0.421,1.065L286.744,16.429z"/>
		<path fill="#3B8AB4" d="M270.678,24.178c0.094-0.003,0.192-0.003,0.283,0"/>
		<polyline fill="#3B8AB4" points="257.267,37.489 257.762,37.937 255.399,40.46 254.869,39.978 255.514,37.239 255.505,37.228 
			253.82,39.029 253.325,38.58 255.689,36.055 256.248,36.565 255.613,39.238 255.622,39.246 		"/>
		<path fill="#3B8AB4" d="M270.167,6.261l-0.771-0.075l1.595-3.265l0.84,0.083l0.89,3.505l-0.794-0.077l-0.151-0.72l-1.296-0.126
			 M270.733,5.02l0.896,0.085l-0.299-1.378h-0.008L270.733,5.02z"/>
		<polyline fill="#3B8AB4" points="274.897,6.422 276.559,6.944 276.356,7.523 273.998,6.781 275.115,3.584 275.809,3.802 		"/>
		<path fill="#3B8AB4" d="M280.247,8.503c-0.501,0.746-1.179,0.771-1.919,0.313c-0.265-0.168-0.625-0.484-0.692-0.928
			c-0.041-0.275,0.052-0.542,0.234-0.831l1.269-1.877l0.622,0.39l-1.24,1.836c-0.266,0.398-0.146,0.718,0.136,0.897
			c0.419,0.264,0.724,0.175,0.955-0.168l1.259-1.868l0.622,0.393"/>
		<polyline fill="#3B8AB4" points="281.838,11.194 281.271,10.747 283.128,8.607 282.31,7.96 282.709,7.496 284.912,9.249 
			284.511,9.708 283.697,9.057 		"/>
		<path fill="#3B8AB4" d="M266.278,5.467c0.036,0.188,0.194,0.532,0.826,0.439c0.342-0.046,0.712-0.183,0.651-0.541
			c-0.046-0.264-0.316-0.297-0.698-0.328l-0.387-0.031c-0.582-0.044-1.142-0.088-1.266-0.833c-0.063-0.375,0.032-1.071,1.157-1.234
			c1.062-0.153,1.459,0.484,1.533,0.898l-0.692,0.099c-0.044-0.146-0.166-0.497-0.795-0.404c-0.278,0.042-0.587,0.186-0.535,0.491
			c0.045,0.265,0.277,0.291,0.425,0.3l0.878,0.081c0.492,0.044,0.957,0.168,1.059,0.773c0.171,1.019-0.875,1.262-1.18,1.306
			c-1.264,0.184-1.601-0.494-1.671-0.913"/>
		<path fill="#3B8AB4" d="M258.34,5.56c0.411-0.206,1.584-0.584,2.345,0.833c0.76,1.417-0.229,2.136-0.638,2.343
			c-0.413,0.209-1.586,0.584-2.345-0.831C256.942,6.491,257.93,5.77,258.34,5.56 M259.761,8.204c0.351-0.176,0.729-0.637,0.276-1.48
			c-0.452-0.845-1.06-0.806-1.411-0.628c-0.348,0.179-0.728,0.636-0.275,1.482C258.803,8.421,259.411,8.385,259.761,8.204"/>
		<path fill="#3B8AB4" d="M253.287,9.668l1.221-1.247c0.643-0.654,1.249-0.323,1.465-0.122c0.274,0.254,0.374,0.608,0.222,0.929
			c0.287-0.116,0.472-0.155,0.937,0.275c0.365,0.339,0.454,0.424,0.605,0.352l0.064,0.059l-0.559,0.569
			c-0.154-0.075-0.3-0.173-0.557-0.409c-0.341-0.318-0.492-0.419-0.865-0.039l-0.522,0.532l0.975,0.905l-0.493,0.502 M255.471,9.574
			c0.262-0.267,0.296-0.486,0.049-0.714c-0.133-0.119-0.384-0.243-0.68,0.062l-0.63,0.639l0.667,0.619L255.471,9.574z"/>
		<polyline fill="#3B8AB4" points="278.803,39.493 279.398,39.174 281.097,42.111 280.458,42.458 278.001,41.035 277.994,41.041 
			279.206,43.136 278.61,43.457 276.914,40.518 277.583,40.156 279.978,41.546 279.986,41.54 		"/>
		<path fill="#3B8AB4" d="M280.073,38.553l1.218-0.916c0.932-0.697,1.742-0.073,2.149,0.436c0.462,0.569,0.891,1.572-0.022,2.258
			l-1.193,0.896 M282.417,40.34l0.56-0.418c0.471-0.354,0.262-0.932-0.097-1.369c-0.634-0.792-1.071-0.563-1.313-0.378l-0.555,0.414
			L282.417,40.34z"/>
		<polyline fill="#3B8AB4" points="285.916,38.059 285.435,38.591 282.808,36.358 283.288,35.826 		"/>
		<polyline fill="#3B8AB4" points="287.037,12.87 285.912,11.437 285.327,11.866 286.362,13.186 285.871,13.542 284.833,12.228 
			284.113,12.758 285.29,14.256 284.792,14.618 283.185,12.567 285.974,10.521 287.532,12.508 		"/>
		<path fill="#3B8AB4" d="M259.589,39.244c0.379,0.255,1.262,1.094,0.33,2.396c-0.935,1.304-2.048,0.786-2.426,0.531
			c-0.38-0.26-1.263-1.095-0.33-2.397C258.098,38.469,259.208,38.988,259.589,39.244 M257.847,41.678
			c0.321,0.223,0.917,0.335,1.473-0.443c0.558-0.778,0.241-1.282-0.083-1.499c-0.325-0.221-0.916-0.335-1.474,0.443
			S257.523,41.461,257.847,41.678"/>
		<polyline fill="#3B8AB4" points="263.298,41.083 264.002,41.343 261.627,44.105 260.983,43.866 261.166,40.285 261.89,40.555 
			261.622,43.219 261.63,43.221 		"/>
		<polyline fill="#3B8AB4" points="264.487,44.931 263.776,44.751 264.68,41.5 265.389,41.68 		"/>
		<polyline fill="#3B8AB4" points="272.777,45.19 272.092,45.236 271.893,42.406 271.884,42.406 271.432,45.277 270.711,45.326 
			269.876,42.541 269.864,42.541 270.063,45.37 269.381,45.417 269.144,42.034 270.212,41.962 271.033,44.584 271.044,44.584 
			271.48,41.877 272.54,41.808 		"/>
		<path fill="#3B8AB4" d="M276.833,43.084c0.23,0.873-0.211,1.376-1.064,1.589c-0.314,0.078-0.799,0.118-1.188-0.135
			c-0.238-0.155-0.381-0.407-0.477-0.734l-0.582-2.191l0.725-0.179l0.568,2.144c0.124,0.461,0.451,0.599,0.784,0.516
			c0.485-0.12,0.627-0.401,0.52-0.802l-0.578-2.177l0.725-0.176"/>
		<path fill="#3B8AB4" d="M253.642,14.623l-0.408,0.59l-2.893-1.914l0.896-1.295c0.381-0.546,0.97-0.642,1.536-0.267
			c0.263,0.173,0.826,0.755,0.298,1.515l-0.469,0.678 M252.482,13.051c0.304-0.439-0.017-0.651-0.146-0.74
			c-0.282-0.187-0.504-0.111-0.759,0.256l-0.326,0.468l0.849,0.566L252.482,13.051z"/>
		<path fill="#3B8AB4" d="M272.742,37.528c0.256,0.579-0.408,0.436-0.664,0.645h-0.214
			C271.903,37.842,272.272,37.302,272.742,37.528"/>
		<path fill="#3B8AB4" d="M268.975,27.187v0.229h-0.897C267.99,26.913,268.763,26.834,268.975,27.187"/>
		<polyline fill="#3B8AB4" points="270.538,21.263 270.971,20.737 272.126,20.644 272.654,20.546 272.413,21.027 271.787,21.263 
			271.884,21.027 271.165,20.978 270.778,21.263 		"/>
		<polyline fill="#3B8AB4" points="273.378,20.598 273.76,20.546 274.192,20.74 273.953,21.027 273.521,21.121 273.326,21.359 
			273.086,21.17 272.704,21.263 272.655,21.074 272.993,20.981 272.85,20.787 272.993,20.644 		"/>
		<polyline fill="#3B8AB4" points="274.566,21.048 274.807,20.856 275.24,20.903 275.143,21.141 274.518,21.28 		"/>
		<polyline fill="#3B8AB4" points="271.165,21.596 271.644,21.549 271.546,21.834 271.068,21.834 		"/>
		<polyline fill="#3B8AB4" points="274.434,21.524 274.72,21.307 274.879,21.461 274.689,21.619 		"/>
		<polyline fill="#3B8AB4" points="274.188,21.987 274.427,22.271 274.62,22.176 274.474,21.703 		"/>
		<polyline fill="#3B8AB4" points="275.068,22.165 275.208,21.979 274.778,21.738 		"/>
		<line fill="#3B8AB4" x1="275.068" y1="22.165" x2="275.208" y2="21.979"/>
		<polyline fill="#3B8AB4" points="275.55,21.953 275.721,22.021 275.652,22.719 275.42,22.088 		"/>
		<path fill="#3B8AB4" d="M267.862,11.267c0.172-0.187,0.043-0.994-0.234-1.077c-0.32,0.497,0.662,0.724,0,1.077 M269.405,13.857
			c-0.04-0.39-0.139-1.21,0.23-1.725l0.218-0.223c-0.084,0.065-0.157,0.137-0.218,0.223L269.19,11.7l0.214-0.225
			c-0.324,0.101-0.43-0.272-0.665-0.417c-0.3,0.807,1.626,1.847-0.214,1.93c-0.13-0.124-0.298-0.23-0.236-0.439h-0.212v0.232h0.212
			c-0.125,0.104-0.234,0.269-0.428,0.207c-0.02,0.248,0.043,0.517-0.234,0.641h0.45c0.126,0.125,0.299,0.228,0.212,0.435
			c0.299,0.083,0.749-0.186,0.9,0.207C269.125,14.085,269.296,13.982,269.405,13.857 M271.764,24.178
			c0.474-0.291,0.743-0.487,1.429-0.639c-0.069,0.206,0.104,0.31,0.209,0.434c0.489-0.553,0.792-0.101,1.16,0.206
			c0.18,0.155,0.376,0.268,0.619,0.209c0.015-0.07,0.047-0.138,0.085-0.209h0.238c0.328,0.801,1.58,1.272,1.688,2.162
			c0.771,0.372,1.842,0.057,2.436,0.847c1.563,1.719-1.878,2.343-1.325,4.106c-0.278,1.137-1.155,1.326-2.224,1.491
			c-0.344,0.869-1.027,1.222-1.773,1.722c-1.112-0.045-1.262,0.767-2.226,1.078c-0.343,1.117-1.287,1.427-1.563,2.589
			c0.17,0.354,0.77,0.147,0.661,0.639c-0.769,0.023-1.754-0.432-1.773-1.283c0.298-2.403,2.076-4.226,2.225-6.673
			c-1.199-0.871-1.391-2.529-1.328-4.082c0.771-0.393,0.601-1.162,0.877-1.722l-0.427-0.434c-0.45,0.641-0.75-0.334-1.347,0
			c-0.041-0.161-0.121-0.306-0.225-0.439c-0.244-0.308-0.618-0.562-0.89-0.87c-0.875-0.269-1.858-0.331-2.651-0.848
			c-1.006-0.083-0.43-1.201-1.327-1.51c-0.128,0.124-0.301,0.228-0.236,0.434c-1.432-0.375-0.854-1.93-1.541-2.801
			c0.153-0.61,0.177-1.182,0.048-1.72c-0.089-0.373-0.253-0.73-0.498-1.078c-1.411-1.535-2.973,1.119-4.663,0.209
			c0.621-0.042,1.134-0.331,1.542-0.848c-0.13-0.21-0.515-0.337-0.431-0.647l0.216-0.228l-0.216-0.207l0.216-0.207
			c-0.13-0.124-0.3-0.228-0.216-0.434c0.836-0.665,1.972-1.578,3.317-1.513c1.029-0.375,2.419,0.828,3.34-0.435
			c-0.47-0.023-0.964-0.706-0.451-1.058c0.321,0.042,0.663-0.517,0.9,0c0.278-0.145,0.212-0.414,0.212-0.664
			c0.731-0.393,1.52,0.83,1.777-0.208h0.45c-0.066,0.208,0.108,0.313,0.212,0.438l0.236-0.23l0.214,0.23
			c0.601-0.583,0.983,0.6,1.777,0.207c0.599,0.373,0.963,1.201,1.112,1.945c-0.234,0-0.513-0.062-0.665,0.208l0.9,0.874
			c0.275-0.145,0.215-0.416,0.215-0.667c1.069,0.543,1.71,1.639,2.226,2.597c-1.157,0.186-2.208,0.683-2.891,1.717
			c0.706,1.743-2.266,1.701-0.897,3.442l-0.44,0.438c-0.049-0.401-0.183-0.763-0.438-1.082c-1.156,0.727-3.166-0.724-2.888,1.516
			c0.299,0.248,0.28,0.621,0.664,0.848c0.556,0.248,0.75-0.435,1.111-0.642v-0.206h0.878c0.471,0.786-0.984,1.719,0.448,1.924
			c0,0.249,0.063,0.522-0.214,0.644c0.11,0.3,0.301,0.407,0.525,0.433c0.162,0.028,0.338,0.012,0.512,0h0.285
			c0.173,0.017,0.337,0.066,0.454,0.209C271.545,24.312,271.66,24.245,271.764,24.178"/>
		<path fill="#3B8AB4" d="M288.169,19.92c0.167-0.025,0.408-0.046,0.762-0.046c0.327,0,0.563,0.057,0.721,0.179
			c0.159,0.116,0.264,0.317,0.264,0.551c0,0.228-0.079,0.429-0.222,0.559c-0.188,0.163-0.456,0.232-0.764,0.232
			c-0.062,0-0.117-0.003-0.154-0.005v0.771h-0.608 M288.778,20.924c0.035,0.005,0.074,0.008,0.14,0.008
			c0.242,0,0.391-0.122,0.391-0.315c0-0.168-0.118-0.282-0.347-0.282c-0.093,0-0.153,0.005-0.185,0.01V20.924z"/>
		<path fill="#3B8AB4" d="M289.163,24.785l-0.128,0.525H288.4l0.667-2.268h0.819l0.684,2.268h-0.664l-0.148-0.525 M289.672,24.333
			l-0.105-0.409c-0.033-0.124-0.079-0.311-0.113-0.445h-0.004c-0.035,0.135-0.071,0.321-0.102,0.453l-0.1,0.401H289.672z"/>
		<polyline fill="#3B8AB4" points="288.671,26.278 288.671,27.116 289.417,27.116 289.417,26.278 290.029,26.278 290.029,28.55 
			289.417,28.55 289.417,27.648 288.671,27.648 288.671,28.55 288.055,28.55 288.055,26.278 		"/>
		<path fill="#3B8AB4" d="M289.483,30.602c0,0.732-0.44,1.195-1.148,1.195c-0.714,0-1.11-0.525-1.11-1.158
			c0-0.656,0.442-1.186,1.146-1.186C289.113,29.453,289.483,29.998,289.483,30.602 M287.881,30.631c0,0.426,0.186,0.686,0.485,0.686
			c0.292,0,0.47-0.285,0.47-0.693c0-0.389-0.179-0.689-0.477-0.689C288.067,29.934,287.881,30.215,287.881,30.631"/>
		<path fill="#3B8AB4" d="M250.715,22.211c0,0.73-0.441,1.195-1.149,1.195c-0.712,0-1.103-0.527-1.103-1.158
			c0-0.66,0.438-1.185,1.139-1.185C250.343,21.063,250.715,21.606,250.715,22.211 M249.109,22.238c0,0.424,0.19,0.686,0.487,0.686
			c0.294,0,0.472-0.285,0.472-0.69c0-0.393-0.178-0.688-0.478-0.688C249.299,21.544,249.109,21.821,249.109,22.238"/>
		<path fill="#3B8AB4" d="M248.464,24.752c0.163-0.029,0.406-0.046,0.756-0.046c0.331,0,0.565,0.056,0.726,0.175
			c0.158,0.114,0.262,0.318,0.262,0.549c0,0.228-0.077,0.432-0.222,0.559c-0.187,0.166-0.456,0.235-0.767,0.235
			c-0.058,0-0.112-0.003-0.148-0.003v0.77h-0.608 M249.072,25.755c0.035,0,0.072,0.005,0.14,0.005c0.24,0,0.39-0.121,0.39-0.314
			c0-0.171-0.115-0.284-0.347-0.284c-0.093,0-0.155,0.009-0.183,0.015V25.755L249.072,25.755z"/>
		<path fill="#3B8AB4" d="M249.451,29.567c0.138,0.068,0.369,0.14,0.596,0.14c0.211,0,0.313-0.071,0.313-0.186
			c0-0.108-0.103-0.175-0.36-0.262c-0.389-0.132-0.646-0.347-0.646-0.684c0-0.4,0.342-0.71,0.921-0.71
			c0.274,0,0.47,0.052,0.624,0.118l-0.128,0.485c-0.101-0.046-0.269-0.108-0.503-0.108c-0.185,0-0.29,0.068-0.29,0.169
			c0,0.116,0.124,0.16,0.413,0.269c0.413,0.147,0.599,0.364,0.599,0.686c0,0.388-0.308,0.725-0.979,0.725
			c-0.276,0-0.545-0.072-0.675-0.14"/>
		<path fill="#3B8AB4" d="M2.72,1.684h34.572c8.173,0,19.198,3.481,19.198,16.072c0,12.186-8.774,17.209-19.273,17.209H22.818
			v13.463H2.72V1.684z M22.294,24.115h4.423c4.8,0,9.673-0.802,9.673-6.026c0-4.956-4.873-5.556-9.748-5.556h-4.349V24.115z"/>
		<path fill="#3B8AB4" d="M70.374,1.686h27.672l18.672,46.742H95.645l-3.449-10.113H75.247l-3.225,10.113H51.999L70.374,1.686z
			 M78.022,27.064h11.624l-5.7-15.335h-0.15L78.022,27.064z"/>
		<polygon fill="#3B8AB4" points="152.873,1.686 172.971,1.686 172.971,48.428 152.873,48.428 152.873,31.616 139.451,31.616 
			139.451,48.428 119.352,48.428 119.352,1.686 139.451,1.686 139.451,17.823 152.873,17.823 		"/>
		<path fill="#3B8AB4" d="M207.175,49.229c-18.297,0-29.023-8.235-29.023-24.173c0-15.671,10.726-24.178,29.023-24.178
			s29.248,8.506,29.248,24.178C236.423,40.994,225.473,49.229,207.175,49.229 M207.175,37.979c7.95,0,8.174-7.9,8.25-12.923
			c-0.075-4.355-0.6-12.924-8.25-12.924c-7.425,0-8.024,8.568-8.024,12.924C199.151,30.079,199.976,37.979,207.175,37.979"/>
	</g>
</g>
</svg>
